<svg width="22" height="16" viewBox="0 0 22 16" fill="none" xmlns="http://www.w3.org/2000/svg">
<rect width="22" height="15.7143" rx="2" fill="white"/>
<mask id="mask0_0_287" style="mask-type:alpha" maskUnits="userSpaceOnUse" x="0" y="0" width="22" height="16">
<rect width="22" height="15.7143" rx="2" fill="white"/>
</mask>
<g mask="url(#mask0_0_287)">
<rect width="22" height="15.7143" fill="#0A17A7"/>
<path d="M0 -0.333333H-0.901086L-0.21693 0.253086L3.33333 3.29617V4.01894L-0.193746 6.53828L-0.333333 6.63798V6.80952V7.33333V7.93475L0.176666 7.616L4.28608 5.04762H5.13127L8.66584 7.57231C8.75176 7.63368 8.8547 7.66667 8.96028 7.66667C9.43058 7.66667 9.64703 7.08155 9.28995 6.77549L6.09524 4.03716V3.3144L9.48273 0.894759C9.65793 0.769618 9.7619 0.567571 9.7619 0.35227V0V-0.601416L9.25191 -0.282666L5.1425 2.28571H4.2973L0.717556 -0.271244L0.630631 -0.333333H0.52381H0Z" fill="#FF2E3B" stroke="white" stroke-width="0.666667"/>
<path fill-rule="evenodd" clip-rule="evenodd" d="M0 2.61905V4.71429H3.66667V7.19048C3.66667 7.55867 3.96514 7.85714 4.33333 7.85714H5.09524C5.46343 7.85714 5.7619 7.55867 5.7619 7.19048V4.71429H9.28571C9.6539 4.71429 9.95238 4.41581 9.95238 4.04762V3.28571C9.95238 2.91752 9.6539 2.61905 9.28571 2.61905H5.7619V0H3.66667V2.61905H0Z" fill="url(#paint0_linear_0_287)"/>
<path fill-rule="evenodd" clip-rule="evenodd" d="M0 3.14286H4.19048V2.61905V0H5.2381V2.61905V3.14286H9.42857V4.19048H5.2381V4.71429V7.33333H4.19048V4.71429V4.19048H0V3.14286Z" fill="url(#paint1_linear_0_287)"/>
<path fill-rule="evenodd" clip-rule="evenodd" d="M4.71431 12.8333L3.79065 13.3189L3.96705 12.2904L3.21979 11.562L4.25248 11.412L4.71431 10.4762L5.17614 11.412L6.20883 11.562L5.46157 12.2904L5.63797 13.3189L4.71431 12.8333Z" fill="white"/>
<path fill-rule="evenodd" clip-rule="evenodd" d="M15.7143 13.619L14.9735 13.836L15.1905 13.0952L14.9735 12.3544L15.7143 12.5714L16.4551 12.3544L16.2381 13.0952L16.4551 13.836L15.7143 13.619Z" fill="white"/>
<path fill-rule="evenodd" clip-rule="evenodd" d="M15.7143 3.66664L14.9735 3.88361L15.1905 3.14283L14.9735 2.40206L15.7143 2.61902L16.4551 2.40206L16.2381 3.14283L16.4551 3.88361L15.7143 3.66664Z" fill="white"/>
<path fill-rule="evenodd" clip-rule="evenodd" d="M18.8571 6.80953L18.1163 7.0265L18.3333 6.28572L18.1163 5.54494L18.8571 5.76191L19.5979 5.54494L19.3809 6.28572L19.5979 7.0265L18.8571 6.80953Z" fill="white"/>
<path fill-rule="evenodd" clip-rule="evenodd" d="M12.5714 7.85713L11.8306 8.0741L12.0476 7.33332L11.8306 6.59255L12.5714 6.80952L13.3122 6.59255L13.0952 7.33332L13.3122 8.0741L12.5714 7.85713Z" fill="white"/>
<path fill-rule="evenodd" clip-rule="evenodd" d="M17.2857 9.1667L16.9153 9.27518L17.0238 8.90479L16.9153 8.5344L17.2857 8.64289L17.6561 8.5344L17.5476 8.90479L17.6561 9.27518L17.2857 9.1667Z" fill="white"/>
</g>
<defs>
<linearGradient id="paint0_linear_0_287" x1="0" y1="0" x2="0" y2="7.85714" gradientUnits="userSpaceOnUse">
<stop stop-color="white"/>
<stop offset="1" stop-color="#F0F0F0"/>
</linearGradient>
<linearGradient id="paint1_linear_0_287" x1="0" y1="0" x2="0" y2="7.33333" gradientUnits="userSpaceOnUse">
<stop stop-color="#FF2E3B"/>
<stop offset="1" stop-color="#FC0D1B"/>
</linearGradient>
</defs>
</svg>
