<svg width="58" height="54" viewBox="0 0 58 54" fill="none" xmlns="http://www.w3.org/2000/svg">
<path fill-rule="evenodd" clip-rule="evenodd" d="M57 48.5H55V37.5C55 35.846 53.654 34.5 52 34.5H51V23.5C51 21.846 49.654 20.5 48 20.5H47V19.5V16.666V12.334V9.5C47 7.846 45.654 6.5 44 6.5H39.525H39.474H29.025H28.974H18.525H18.474H14C12.346 6.5 11 7.846 11 9.5V12.334V16.666V19.5V20.5H10C8.346 20.5 7 21.846 7 23.5V34.5H6C4.346 34.5 3 35.846 3 37.5V48.5H1C0.447 48.5 0 48.947 0 49.5C0 50.053 0.447 50.5 1 50.5H4H54H57C57.553 50.5 58 50.053 58 49.5C58 48.947 57.553 48.5 57 48.5ZM18.5 10.609C19.608 12.351 21.546 13.5 23.75 13.5C25.954 13.5 27.892 12.351 29 10.609C30.108 12.351 32.046 13.5 34.25 13.5C36.454 13.5 38.392 12.351 39.5 10.609C40.608 12.351 42.546 13.5 44.75 13.5C44.7978 13.5 44.8473 13.4955 44.8969 13.4909C44.9314 13.4878 44.966 13.4846 45 13.483V15.516C44.9661 15.5144 44.9316 15.5112 44.8972 15.5081L44.8972 15.5081L44.8971 15.5081L44.8971 15.5081L44.897 15.5081L44.897 15.5081L44.8969 15.5081L44.8969 15.5081C44.8473 15.5035 44.7978 15.499 44.75 15.499C42.546 15.499 40.608 16.648 39.5 18.39C38.392 16.648 36.454 15.499 34.25 15.499C32.046 15.499 30.108 16.648 29 18.39C27.892 16.648 25.954 15.499 23.75 15.499C21.546 15.499 19.608 16.648 18.5 18.39C17.392 16.648 15.454 15.499 13.25 15.499C13.2022 15.499 13.1527 15.5035 13.1031 15.5081L13.1031 15.5081L13.103 15.5081L13.103 15.5081L13.103 15.5081L13.1029 15.5081L13.1029 15.5081L13.1029 15.5081L13.1028 15.5081L13.1028 15.5081L13.1028 15.5081L13.1027 15.5081C13.0684 15.5112 13.0339 15.5144 13 15.516V13.483C13.0341 13.4846 13.0686 13.4878 13.1031 13.4909L13.1031 13.491C13.1527 13.4955 13.2022 13.5 13.25 13.5C15.454 13.5 17.392 12.351 18.5 10.609ZM13 17.51V19.5C13 20.052 13.448 20.5 14 20.5H17.295C16.762 18.754 15.148 17.5 13.25 17.5C13.168 17.5 13.085 17.503 13 17.51ZM23.75 17.5C25.648 17.5 27.262 18.754 27.795 20.5H19.705C20.238 18.754 21.852 17.5 23.75 17.5ZM38.295 20.5C37.762 18.754 36.148 17.5 34.25 17.5C32.352 17.5 30.738 18.754 30.205 20.5H38.295ZM44.75 17.5C44.832 17.5 44.915 17.503 45 17.51V19.5C45 20.052 44.552 20.5 44 20.5H40.705C41.238 18.754 42.852 17.5 44.75 17.5ZM45 9.5C45 8.948 44.552 8.5 44 8.5H40.705C41.237 10.246 42.852 11.5 44.75 11.5C44.832 11.5 44.915 11.497 45 11.49V9.5ZM38.295 8.5C37.763 10.246 36.149 11.5 34.25 11.5C32.351 11.5 30.737 10.246 30.205 8.5H38.295ZM23.75 11.5C25.649 11.5 27.263 10.246 27.795 8.5H19.705C20.237 10.246 21.851 11.5 23.75 11.5ZM13 9.5C13 8.948 13.448 8.5 14 8.5H17.295C16.763 10.246 15.149 11.5 13.25 11.5C13.168 11.5 13.085 11.497 13 11.49V9.5ZM10 22.5C9.448 22.5 9 22.948 9 23.5V34.5H49V23.5C49 22.948 48.552 22.5 48 22.5H46H44H39.526H39.475H29.026H28.975H18.526H18.475H14H12H10ZM5 37.5C5 36.948 5.448 36.5 6 36.5H8H50H52C52.552 36.5 53 36.948 53 37.5V39.25C53 42.145 50.645 44.5 47.75 44.5C44.855 44.5 42.5 42.145 42.5 39.25C42.5 38.697 42.053 38.25 41.5 38.25C40.947 38.25 40.5 38.697 40.5 39.25C40.5 42.145 38.145 44.5 35.25 44.5C32.355 44.5 30 42.145 30 39.25C30 38.697 29.553 38.25 29 38.25C28.447 38.25 28 38.697 28 39.25C28 42.145 25.645 44.5 22.75 44.5C19.855 44.5 17.5 42.145 17.5 39.25C17.5 38.697 17.053 38.25 16.5 38.25C15.947 38.25 15.5 38.697 15.5 39.25C15.5 42.145 13.145 44.5 10.25 44.5C7.355 44.5 5 42.145 5 39.25V37.5ZM5 44.236V48.5H53V44.236C51.678 45.627 49.816 46.5 47.75 46.5C45.086 46.5 42.76 45.053 41.5 42.907C40.24 45.052 37.914 46.5 35.25 46.5C32.586 46.5 30.26 45.053 29 42.907C27.74 45.052 25.414 46.5 22.75 46.5C20.086 46.5 17.76 45.053 16.5 42.907C15.24 45.052 12.914 46.5 10.25 46.5C8.184 46.5 6.322 45.627 5 44.236Z" fill="#9D9D9D"/>
<path d="M53 51.5H5C4.447 51.5 4 51.947 4 52.5C4 53.053 4.447 53.5 5 53.5H53C53.553 53.5 54 53.053 54 52.5C54 51.947 53.553 51.5 53 51.5Z" fill="#20D994"/>
<path d="M11 24.5C10.447 24.5 10 24.947 10 25.5V31.5C10 32.053 10.447 32.5 11 32.5C11.553 32.5 12 32.053 12 31.5V25.5C12 24.947 11.553 24.5 11 24.5Z" fill="#20D994"/>
<path d="M15 24.5C14.447 24.5 14 24.947 14 25.5V31.5C14 32.053 14.447 32.5 15 32.5C15.553 32.5 16 32.053 16 31.5V25.5C16 24.947 15.553 24.5 15 24.5Z" fill="#20D994"/>
<path d="M19 24.5C18.447 24.5 18 24.947 18 25.5V31.5C18 32.053 18.447 32.5 19 32.5C19.553 32.5 20 32.053 20 31.5V25.5C20 24.947 19.553 24.5 19 24.5Z" fill="#20D994"/>
<path d="M23 24.5C22.447 24.5 22 24.947 22 25.5V31.5C22 32.053 22.447 32.5 23 32.5C23.553 32.5 24 32.053 24 31.5V25.5C24 24.947 23.553 24.5 23 24.5Z" fill="#20D994"/>
<path d="M27 24.5C26.447 24.5 26 24.947 26 25.5V31.5C26 32.053 26.447 32.5 27 32.5C27.553 32.5 28 32.053 28 31.5V25.5C28 24.947 27.553 24.5 27 24.5Z" fill="#20D994"/>
<path d="M31 24.5C30.447 24.5 30 24.947 30 25.5V31.5C30 32.053 30.447 32.5 31 32.5C31.553 32.5 32 32.053 32 31.5V25.5C32 24.947 31.553 24.5 31 24.5Z" fill="#20D994"/>
<path d="M35 24.5C34.447 24.5 34 24.947 34 25.5V31.5C34 32.053 34.447 32.5 35 32.5C35.553 32.5 36 32.053 36 31.5V25.5C36 24.947 35.553 24.5 35 24.5Z" fill="#20D994"/>
<path d="M39 24.5C38.447 24.5 38 24.947 38 25.5V31.5C38 32.053 38.447 32.5 39 32.5C39.553 32.5 40 32.053 40 31.5V25.5C40 24.947 39.553 24.5 39 24.5Z" fill="#20D994"/>
<path d="M43 24.5C42.447 24.5 42 24.947 42 25.5V31.5C42 32.053 42.447 32.5 43 32.5C43.553 32.5 44 32.053 44 31.5V25.5C44 24.947 43.553 24.5 43 24.5Z" fill="#20D994"/>
<path d="M47 24.5C46.447 24.5 46 24.947 46 25.5V31.5C46 32.053 46.447 32.5 47 32.5C47.553 32.5 48 32.053 48 31.5V25.5C48 24.947 47.553 24.5 47 24.5Z" fill="#20D994"/>
<path d="M16.293 5.20701C16.488 5.40201 16.744 5.50001 17 5.50001C17.256 5.50001 17.512 5.40201 17.707 5.20701L18.5 4.41401L19.293 5.20701C19.488 5.40201 19.744 5.50001 20 5.50001C20.256 5.50001 20.512 5.40201 20.707 5.20701C21.098 4.81601 21.098 4.18401 20.707 3.79301L19.914 3.00001L20.707 2.20701C21.098 1.81601 21.098 1.18401 20.707 0.793006C20.316 0.402006 19.684 0.402006 19.293 0.793006L18.5 1.58601L17.707 0.793006C17.316 0.402006 16.684 0.402006 16.293 0.793006C15.902 1.18401 15.902 1.81601 16.293 2.20701L17.086 3.00001L16.293 3.79301C15.902 4.18401 15.902 4.81601 16.293 5.20701Z" fill="#20D994"/>
<path d="M23.293 5.20701C23.488 5.40201 23.744 5.50001 24 5.50001C24.256 5.50001 24.512 5.40201 24.707 5.20701L25.5 4.41401L26.293 5.20701C26.488 5.40201 26.744 5.50001 27 5.50001C27.256 5.50001 27.512 5.40201 27.707 5.20701C28.098 4.81601 28.098 4.18401 27.707 3.79301L26.914 3.00001L27.707 2.20701C28.098 1.81601 28.098 1.18401 27.707 0.793006C27.316 0.402006 26.684 0.402006 26.293 0.793006L25.5 1.58601L24.707 0.793006C24.316 0.402006 23.684 0.402006 23.293 0.793006C22.902 1.18401 22.902 1.81601 23.293 2.20701L24.086 3.00001L23.293 3.79301C22.902 4.18401 22.902 4.81601 23.293 5.20701Z" fill="#20D994"/>
<path d="M30.293 5.20701C30.488 5.40201 30.744 5.50001 31 5.50001C31.256 5.50001 31.512 5.40201 31.707 5.20701L32.5 4.41401L33.293 5.20701C33.488 5.40201 33.744 5.50001 34 5.50001C34.256 5.50001 34.512 5.40201 34.707 5.20701C35.098 4.81601 35.098 4.18401 34.707 3.79301L33.914 3.00001L34.707 2.20701C35.098 1.81601 35.098 1.18401 34.707 0.793006C34.316 0.402006 33.684 0.402006 33.293 0.793006L32.5 1.58601L31.707 0.793006C31.316 0.402006 30.684 0.402006 30.293 0.793006C29.902 1.18401 29.902 1.81601 30.293 2.20701L31.086 3.00001L30.293 3.79301C29.902 4.18401 29.902 4.81601 30.293 5.20701Z" fill="#20D994"/>
<path d="M37.293 5.20701C37.488 5.40201 37.744 5.50001 38 5.50001C38.256 5.50001 38.512 5.40201 38.707 5.20701L39.5 4.41401L40.293 5.20701C40.488 5.40201 40.744 5.50001 41 5.50001C41.256 5.50001 41.512 5.40201 41.707 5.20701C42.098 4.81601 42.098 4.18401 41.707 3.79301L40.914 3.00001L41.707 2.20701C42.098 1.81601 42.098 1.18401 41.707 0.793006C41.316 0.402006 40.684 0.402006 40.293 0.793006L39.5 1.58601L38.707 0.793006C38.316 0.402006 37.684 0.402006 37.293 0.793006C36.902 1.18401 36.902 1.81601 37.293 2.20701L38.086 3.00001L37.293 3.79301C36.902 4.18401 36.902 4.81601 37.293 5.20701Z" fill="#20D994"/>
</svg>
