<svg width="22" height="16" viewBox="0 0 22 16" fill="none" xmlns="http://www.w3.org/2000/svg">
<rect x="0.25" y="0.25" width="21.5" height="15.2143" rx="1.75" fill="white" stroke="#F5F5F5" stroke-width="0.5"/>
<mask id="mask0_0_334" style="mask-type:alpha" maskUnits="userSpaceOnUse" x="0" y="0" width="22" height="16">
<rect x="0.25" y="0.25" width="21.5" height="15.2143" rx="1.75" fill="white" stroke="white" stroke-width="0.5"/>
</mask>
<g mask="url(#mask0_0_334)">
<rect x="15.7143" width="6.28571" height="15.7143" fill="#FF3131"/>
<path fill-rule="evenodd" clip-rule="evenodd" d="M0 15.7143H6.28571V0H0V15.7143Z" fill="#FF3131"/>
<path fill-rule="evenodd" clip-rule="evenodd" d="M12.8261 7.07869C12.5929 7.31189 12.1988 7.10101 12.2635 6.77761L12.5714 5.23811L11.5238 5.76192L11 4.19049L10.4762 5.76192L9.42855 5.23811L9.73645 6.77761C9.80113 7.10101 9.40709 7.31189 9.17389 7.07869L9.14044 7.04524C9.01027 6.91507 8.79921 6.91507 8.66904 7.04524L8.38093 7.33335L7.33331 6.80954L7.85712 7.85716L7.56902 8.14526C7.43884 8.27544 7.43884 8.48649 7.56902 8.61667L8.90474 9.9524H10.4762L10.7381 11.5238H11.2619L11.5238 9.9524H13.0952L14.4309 8.61667C14.5611 8.48649 14.5611 8.27544 14.4309 8.14526L14.1428 7.85716L14.6666 6.80954L13.619 7.33335L13.3309 7.04524C13.2007 6.91507 12.9897 6.91507 12.8595 7.04524L12.8261 7.07869Z" fill="#FF3131"/>
</g>
</svg>
