<svg fill="none" height="180" viewBox="0 0 180 180" width="180" xmlns="http://www.w3.org/2000/svg"><path clip-rule="evenodd" d="m179.759 175.84-14.905-35.543c-.073-.301-.193-.588-.356-.851l-22.195-52.9265c-.87-2.0809-2.493-3.7571-4.544-4.6951l-.075-.0292c-1.157-.5217-2.412-.7931-3.681-.7956h-41.0094v-33.0001h20.9994v15.0005c.007 1.6541 1.346 2.9936 3 2.9999h51c1.214 0 2.308-.7309 2.772-1.852.464-1.1212.207-2.4114-.651-3.2692l-12.878-12.8792 12.878-12.8784c.859-.8578 1.115-2.1481.651-3.2692-.465-1.1211-1.558-1.852-2.772-1.8517h-30v-15.0001c.001-.7956-.315-1.5588-.878-2.1217-.563-.5625-1.326-.8785-2.122-.8785h-41.9994v-9.00002c0-1.65691-1.343-2.99988-2.9999-2.99988s-2.9999 1.34297-2.9999 2.99988v78.00012h-41.0097c-3.6278-.0063-6.9026 2.1716-8.2997 5.5195l-37.456562 89.3205c-.063281.166-.111796.338-.1441402.513-.0050272.023-.0120202.044-.0190024.066h-.0000494-.0000087c-.0086232.026-.0172217.052-.0220723.08-.053789.343-.04746092.691.0189844 1.031.0035751.02.0021214.039.000669.059-.001547.02-.0030927.04.0014404.062.0053882.024.016079.045.0267789.066.0095459.019.0190993.038.0249003.059.068555.259.171563.508.306563.74.009822.016.017586.034.025351.052h.000026c.008901.02.017807.04.029818.059l.017227.034c.163476.239.360703.452.585347.634.03663.03.07508.056.11385.082h.00004.00004.00005.00005.00006.00007.00008c.0225.015.0451.03.06752.046.18774.134.39059.247.60399.334l.04467.018c.06205.026.12276.051.18806.072.28547.095.58359.146.88453.152l.00774.001h.0014.00141 173.99977c1.005.001 1.943-.502 2.499-1.338.556-.837.656-1.896.267-2.822zm-42.646-128.7169c.56-.565.876-1.3275.881-2.1231v-9h22.757l-9.879 9.8789c-.562.5625-.879 1.3254-.879 2.121s.317 1.5585.879 2.121l9.879 9.8789h-36.515zm-17.119.8768v7.7579l7.758-7.7579zm-27.0004-29.9999h38.9994v24.0001h-38.9994zm-2.9999 108c-.7959 0-1.5592-.316-2.1217-.879-.5628-.562-.8789-1.325-.8778-2.122v-2.739c-3.7723.37-7.1304 2.548-9.006 5.842 2.6202 4.016 7.226 6.278 12.0058 5.897 8.0652 0 11.813-5.025 12.006-6.102-1.977-3.163-5.2974-5.241-9.0061-5.637v2.74c0 .796-.316 1.559-.8785 2.121-.5629.563-1.3261.879-2.1217.879zm-46.7786-37.1602c.4666-1.1162 1.5589-1.8421 2.7686-1.8397h13.5323c-7.7688 3.9512-15.0293 8.8302-21.6225 14.5309zm32.2577-1.8397c-16.7984 5.5674-31.8217 15.4859-43.5407 28.7469l-23.87145 56.928c12.75745-3.266 43.56945-12.046 57.72655-23.822-12.5726-4.738-20.7935-13.105-20.7935-22.853 0-12.226 13.0605-22.66 32.4963-25.965 1.0565-.1797 2.1291.218 2.8132 1.043.6842.825.8761 1.952.5038 2.957-.3726 1.006-1.253 1.736-2.3094 1.916-16.1954 2.754-27.5041 10.998-27.5041 20.049 0 11.383 17.8593 21 38.9998 21 21.1407 0 38.9997-9.616 38.9997-21 0-9.051-11.308-17.295-27.504-20.049-1.056-.18-1.9367-.91-2.309-1.915-.3726-1.005-.1803-2.133.5038-2.958.6842-.825 1.7572-1.2223 2.8132-1.042 3.193.54 6.342 1.318 9.419 2.326 3.22-6.1327 7.867-11.4015 13.549-15.3619h-32.4718v27.2469c9.1108 1.18 14.9998 7.438 14.9998 11.753 0 4.777-7.178 12-17.9997 12-10.8221 0-18-7.223-18-12 0-4.315 5.8898-10.573 15.0002-11.753v-27.2469zm-49.9789 86.9999c16.1037-5.014 36.8424-12.985 46.9062-23.072 5.7589 1.4 11.6666 2.095 17.5932 2.072 25.2337 0 44.9997-11.859 44.9997-27 0-8.697-6.633-16.472-17.445-21.435 4.163-7.4701 10.713-13.3264 18.601-16.6304.263.2601.473.5674.623.9052l21.903 52.2332c-11.63 26.114-53.824 32.5-56.881 32.927zm136.1901-25.751c-8.056 13.214-22.754 21.131-35.523 25.751h46.321z" fill="#fff" fill-rule="evenodd"/></svg>