<svg fill="none" height="180" viewBox="0 0 171 180" width="171" xmlns="http://www.w3.org/2000/svg"><g fill="#fff"><path d="m62.8981 140.802c1.6505 0 2.9882-1.338 2.9882-2.989 0-1.65-1.3377-2.988-2.9882-2.988-14.4819.014-27.5463-8.697-33.1021-22.071-.6405-1.517-2.3873-2.23-3.9065-1.595-1.5191.635-2.2388 2.379-1.6091 3.901 6.4831 15.6 21.724 25.759 38.6177 25.742z" opacity=".7"/><path clip-rule="evenodd" d="m164.501 95.9767h-9.277c-.922-4.4097-3.79-8.1648-7.802-10.2148l3.597-3.0474c1.998-1.6736 3.183-4.1239 3.254-6.7297.041-3.5986-1.205-7.0932-3.513-9.8545l1.082-1.0817 8.997 1.8003c1.047.2094 2.126-.1551 2.831-.9571.705-.8016.928-1.9187.586-2.9301-.341-1.0113-1.197-1.7635-2.244-1.973l-5.092-1.0187 3.628-3.6283h7.216c1.65 0 2.988-1.3378 2.988-2.9882 0-1.6505-1.338-2.9883-2.988-2.9883h-1.239l3.352-3.3517c1.158-1.1682 1.154-3.0533-.009-4.2167-1.164-1.1633-3.049-1.1672-4.217-.0091l-3.35 3.3503v-1.2372c0-1.6505-1.338-2.9882-2.988-2.9882-1.651 0-2.989 1.3381-2.989 2.9882v7.214l-2.477 2.4776v-1.2386c0-1.6505-1.338-2.9882-2.988-2.9882-1.651 0-2.989 1.3377-2.989 2.9882v7.2154l-1.335 1.3357c-2.761-2.3106-6.257-3.557-9.856-3.5128-2.585.0682-5.018 1.2358-6.689 3.2102l-4.529 5.3468c-3.061-4.2784-7.994-6.8211-13.255-6.832-2.894.0035-5.734.7841-8.224 2.2605l-.286-2.7858c-1.33-9.9798-9.8544-17.4264-19.9225-17.4039-10.068.0224-18.5589 7.5071-19.8444 17.4929l-.5863 5.7071-6.2075-6.2076c-2.3348-2.3319-6.1169-2.3319-8.4512 0l-9.663 9.6616c-1.1167-1.4541-2.1589-2.9641-3.1223-4.5239l-4.0885-9.4524c-.7004-1.6319-2.0924-2.8663-3.7968-3.3661l-.0028-.0014-14.9243-4.3963c-2.2244-.6563-4.6278.0336-6.16515 1.7699-1.53736 1.7362-1.93167 4.2054-1.01101 6.3339l1.15844 2.6762c.05778.1825.13413.3583.22763.5253l6.75599 15.6288c.014.0323.0334.0596.0529.087.016.0226.0321.0453.0451.0706 1.7219 7.1437 1.8725 14.5758.4423 21.7835h-8.47295c-3.29918.0039-5.972915 2.6776-5.976767 5.977v2.988c.031168 28.044 22.757717 50.77 50.801717 50.802h7.1411l-2.9563 5.976h-4.1848c-4.9511 0-8.965 4.014-8.965 8.965 0 4.952 4.0136 8.965 8.965 8.965h65.7434c4.951 0 8.965-4.013 8.965-8.965 0-4.951-4.014-8.965-8.965-8.965h-4.13l-2.988-5.976h10.106c28.044-.031 50.77-22.758 50.802-50.802v-2.988c-.004-3.2997-2.678-5.9735-5.977-5.9773zm-15.458 0h-14.224c1.541-1.1395 3.152-2.3491 4.876-3.6669l2.502-2.1187c3.151.5694 5.759 2.7739 6.846 5.7856zm-20.841-23.0211-3.288 3.8788c-1.283 1.6858-2.489 3.297-3.657 4.8715-.261.3516-.519.7-.774 1.0453-1.149 1.5577-2.258 3.0754-3.288 4.5165l-.041.0567c-1.025 1.4334-1.973 2.7918-2.877 4.1061l-.1.1448c-.137.1989-.274.3974-.407.5927-.897 1.3156-1.746 2.5823-2.516 3.7698l-.025.0385h13.452c.269-.1915.554-.3998.839-.6081.22-.1604.439-.3208.652-.4736v-.0039l.955-.6902c1.308-.9469 2.657-1.9338 4.045-2.9609 1.008-.748 2.043-1.5268 3.085-2.3134.219-.1655.434-.3256.648-.4856l.003-.0023.001-.0006c.341-.2546.681-.509 1.042-.7844l4.273-3.626.006.0004 6.969-5.9099c.71-.6083 1.115-1.4999 1.106-2.4352-.091-2.6584-1.248-5.1686-3.211-6.9644l-.57-.5704-.004-.0032-.003-.0042-.572-.5718c-1.794-1.9639-4.305-3.1203-6.963-3.2071-.915-.013-1.79.3747-2.396 1.0607l-2.508 2.9585 3.99 3.9901c1.167 1.1668 1.167 3.0589 0 4.2258-1.166 1.1668-3.058 1.1668-4.225 0zm-15.997-6.8621c3.88.0109 7.431 2.1789 9.213 5.6252l-1.161 1.3731c-1.234 1.619-2.396 3.1689-3.525 4.6867-.275.3698-.543.7326-.812 1.0961-.949 1.2841-1.86 2.5305-2.733 3.7394-.068.0946-.138.191-.208.2873-.088.1201-.175.2401-.259.3567-1.012 1.4095-1.968 2.7641-2.869 4.0636-.076.1097-.149.2163-.222.3226v.0001.001c-.067.0979-.134.1956-.203.2951-.747 1.0846-1.454 2.1292-2.121 3.1336-.048.0725-.101.1494-.153.2264-.06.0875-.12.1752-.174.2568l-2.007-19.5412-.274-2.6702c1.948-2.0721 4.664-3.2491 7.508-3.2523zm-34.3655 23.9064h-11.0157l-.6136 5.9768h35.2148l-1.284-12.5048-.5572-5.4252h-9.7908c-1.6504 0-2.9882-1.3377-2.9882-2.9882 0-1.6501 1.3378-2.9882 2.9882-2.9882h9.1765l-1.2095-11.7795c-.982-6.9493-6.9255-12.1181-13.9437-12.1269-6.9412.0235-12.8336 5.0933-13.8923 11.9532h7.9155c1.6505 0 2.9882 1.3378 2.9882 2.9882 0 1.6505-1.3377 2.9882-2.9882 2.9882h-8.5623l-.631 6.1498.0007.0063-1.2082 11.7739h10.4008c1.6505 0 2.9882 1.3377 2.9882 2.9882s-1.3377 2.9882-2.9882 2.9882zm-24.9307-26.5941 9.6458 9.6457-1.3388 13.0357-.2263 1.1479c-.7319-.6335-1.4823-1.2705-2.2202-1.8886-.8321-.7686-1.7121-1.483-2.6352-2.1397-.6013-.4668-1.1332-.8649-1.4715-1.0744-1.0912-.6769-2.1369-1.3447-3.1493-2.0153-.1035-.0685-.2016-.1368-.2995-.2051l-.0004-.0003c-.0819-.057-.1636-.1141-.2485-.1711-.8317-.5596-1.6466-1.1213-2.4297-1.6953-.0873-.064-.1715-.1289-.2558-.1939-.0715-.0551-.1429-.1102-.2162-.1647-.7908-.5915-1.563-1.1934-2.3092-1.8175-.083-.0692-.1642-.1397-.2453-.2103-.0524-.0455-.1047-.091-.1575-.136-.7497-.6409-1.4792-1.3035-2.1887-1.9965-.0227-.0222-.0453-.0445-.0679-.0669l-.0373-.0371-.0411-.0408-.0431-.0425zm-13.174 15.1123c-2.8887-2.7011-5.449-5.7331-7.6276-9.0336l-4.4383 1.9183-7.2701 3.1434c1.4446 7.0631 1.5241 14.3373.2336 21.4301h38.7084c-1.1013-2.2881-2.6138-4.3546-4.4622-6.0958-1.0089-.8461-1.9341-1.6025-2.5914-2.1078-.1108-.076-.2172-.1572-.3235-.2384-.1471-.1123-.2942-.2246-.4529-.323-1.3038-.8089-2.5249-1.6028-3.7106-2.3967-.2519-.1688-.5035-.3418-.7522-.5128l-.0002-.0001-.0003-.0002-.0002-.0001-.0002-.0002-.1427-.0981c-1.1221-.7704-2.2063-1.5489-3.2379-2.3438-.0373-.0288-.0757-.057-.1142-.0852l-.0002-.0001-.0001-.0001c-.0242-.0177-.0484-.0355-.0723-.0534-.0162-.0121-.0323-.0243-.0482-.0367-1.177-.9154-2.2952-1.8714-3.3773-2.8645-.061-.0562-.1217-.114-.1825-.1718-.0456-.0434-.0912-.0868-.1369-.1294zm-27.0578-22.7217-.0203-.0497-1.2607-2.9126 14.9243 4.3964 3.0057 6.9454-10.9727 4.7437zm106.999 114.8886c-.001-1.65-1.338-2.987-2.988-2.988h-65.7434c-1.6502 0-2.9883 1.337-2.9883 2.988 0 1.65 1.3378 2.988 2.9883 2.988h65.7434c1.649-.001 2.986-1.338 2.988-2.988zm-57.8782-8.965 2.9563-5.977h38.1339l2.988 5.977zm57.8782-11.953c24.745-.028 44.797-20.081 44.825-44.825v-2.989h-158.38135v2.989c.02767 24.744 20.08015 44.797 44.82495 44.825z" fill-rule="evenodd"/><path d="m57.759 41.2736c1.1458 1.1878 3.0379 1.2218 4.2258.076 1.1878-1.1459 1.2218-3.038.076-4.2258-2.8716-3.0243-2.8716-7.7677 0-10.792 5.0806-5.3495 5.0806-13.7416 0-19.09152-1.1459-1.18786-3.038-1.22183-4.2258-.07599-1.1879 1.14583-1.2218 3.03791-.076 4.22581 2.8716 3.0243 2.8716 7.7676 0 10.7919-5.0778 5.351-5.0778 13.7406 0 19.0916z" opacity=".7"/><path d="m81.6654 35.2968c1.1458 1.1878 3.0379 1.2218 4.2257.076 1.1879-1.1459 1.2219-3.038.076-4.2258-2.8716-3.0243-2.8716-7.7677 0-10.792 5.0807-5.3495 5.0807-13.74161 0-19.09153-1.1458-1.1878584-3.0379-1.2218273-4.2258-.07599-1.1878 1.14584-1.2218 3.03794-.0759 4.2258 2.8715 3.02428 2.8715 7.76762 0 10.79192-5.0775 5.351-5.0779 13.7406 0 19.0916z" opacity=".7"/><path d="m105.572 41.2736c1.146 1.1878 3.038 1.2218 4.226.076 1.188-1.1459 1.222-3.038.076-4.2258-2.872-3.0243-2.872-7.7677 0-10.792 5.081-5.3495 5.081-13.7416 0-19.09152-1.146-1.18786-3.038-1.22183-4.226-.07599-1.188 1.14583-1.222 3.03791-.076 4.22581 2.872 3.0243 2.872 7.7676 0 10.7919-5.078 5.351-5.078 13.7406 0 19.0916z" opacity=".7"/></g></svg>