<svg width="100" height="100" viewBox="0 0 100 100" fill="none" xmlns="http://www.w3.org/2000/svg">
<path fill-rule="evenodd" clip-rule="evenodd" d="M59.9963 23.3334C59.9963 28.8562 55.5192 33.3334 49.9963 33.3334C44.476 33.3273 40.0024 28.8537 39.9963 23.3334C39.9963 17.8105 44.4735 13.3334 49.9963 13.3334C55.5192 13.3334 59.9963 17.8105 59.9963 23.3334ZM56.6629 23.3332C56.6629 19.6513 53.6782 16.6666 49.9963 16.6666C46.3161 16.6703 43.3334 19.6529 43.3297 23.3334C43.3297 27.0152 46.3145 30 49.9963 30C53.6784 30 56.6629 27.015 56.6629 23.3332Z" fill="#20D994"/>
<path fill-rule="evenodd" clip-rule="evenodd" d="M99.8662 97.6889L91.5899 77.9615C91.5483 77.7816 91.4764 77.6102 91.3772 77.4545L79.6553 49.5145L79.6529 49.5002L79.6426 49.484L79.0539 48.0809C78.2867 46.2129 76.4654 44.9951 74.4461 44.9998H66.4406C70.7213 36.7027 74.3127 28.2105 74.3127 23.1818C74.3127 10.3988 63.4045 0 49.9963 0C36.5881 0 25.6799 10.3988 25.6799 23.182C25.6799 28.2107 29.2711 36.7029 33.552 45H25.5465C23.5305 44.9941 21.7112 46.2086 20.9436 48.0729L14.8498 62.6025C14.8221 62.652 14.7977 62.7029 14.7766 62.7555L0.12658 97.6889C0.0914238 97.7812 0.0646659 97.8766 0.0465019 97.9738C0.0437111 97.9864 0.0398298 97.9983 0.0359537 98.0102L0.0359457 98.0102L0.0359258 98.0103C0.0311308 98.0249 0.0263476 98.0396 0.0236503 98.0555C-0.0062325 98.2455 -0.00252156 98.4395 0.0341972 98.6283C0.0361835 98.6393 0.0353756 98.6499 0.0345686 98.6605C0.0337093 98.6718 0.0328509 98.683 0.0353691 98.6947C0.0383397 98.7079 0.0442115 98.7195 0.0500822 98.731C0.055405 98.7415 0.0607269 98.752 0.0638847 98.7637C0.101971 98.9086 0.159588 99.0479 0.235369 99.1773C0.240475 99.186 0.244594 99.1953 0.248708 99.2046L0.24873 99.2046L0.248751 99.2047C0.253592 99.2155 0.25843 99.2264 0.264861 99.2363L0.274822 99.2562C0.365643 99.3885 0.475017 99.5068 0.599822 99.6076C0.620545 99.6248 0.642385 99.6393 0.664372 99.6539L0.664391 99.654L0.664411 99.654L0.664434 99.654L0.66446 99.654L0.664491 99.654C0.676865 99.6623 0.689286 99.6705 0.70158 99.6793C0.805486 99.7537 0.917791 99.8158 1.03615 99.8643L1.05783 99.8733C1.09364 99.8882 1.12865 99.9028 1.16623 99.9146C1.32463 99.9676 1.49025 99.9959 1.65744 99.999L1.66135 100H1.66232H1.6631H98.3297C98.8877 100 99.4088 99.7213 99.7178 99.2564C100.027 98.7918 100.082 98.2033 99.8662 97.6889ZM29.0133 23.182C29.0133 12.2381 38.4258 3.3334 49.9963 3.3334C61.5668 3.3334 70.9793 12.2381 70.9793 23.182C70.9793 27.8338 66.9617 36.9443 62.1695 45.9551C62.1633 45.968 62.1563 45.9802 62.1493 45.9924L62.1493 45.9924C62.1393 46.0098 62.1294 46.027 62.1217 46.0463C58.2133 53.3865 53.7994 60.6502 50.618 65.3727C50.4695 65.5656 50.2397 65.6787 49.9963 65.6787C49.7528 65.6787 49.5231 65.5656 49.3746 65.3727C46.1932 60.6502 41.7793 53.3867 37.8711 46.0465C37.8634 46.0275 37.8536 46.0104 37.8438 45.9932L37.8438 45.9931C37.8366 45.9806 37.8293 45.9679 37.8229 45.9545C33.0307 36.9439 29.0133 27.8336 29.0133 23.182ZM56.6662 69.9432C55.9289 68.6744 54.7512 67.7207 53.3567 67.2635C52.5889 68.3594 51.3348 69.0121 49.9963 69.0123C48.658 69.0123 47.4039 68.3596 46.636 67.2637C45.2028 67.7148 44.0104 68.7223 43.3264 70.0603C44.5858 72.067 46.7826 73.2914 49.1516 73.3074L49.2813 73.313C49.494 73.3224 49.7452 73.3334 49.9963 73.3334C54.4787 73.3334 56.5588 70.5422 56.6662 69.9432ZM24.0213 49.3539C24.2697 48.7312 24.8758 48.3256 25.5463 48.3334H33.0498C28.7444 50.5082 24.7238 53.2064 21.0797 56.3664L24.0213 49.3539ZM36.4459 50.4072C29.3303 53.7193 22.9653 58.4486 17.7404 64.3057L4.47834 95.9311C11.5699 94.1158 28.7033 89.2336 36.5623 82.6861C29.558 80.0496 24.9965 75.4031 24.9965 70.0006C24.9965 65.3863 28.3785 61.117 34.2754 58.2883C34.8123 58.0299 35.4461 58.0777 35.9381 58.4139C36.4301 58.7498 36.7051 59.323 36.6596 59.917C36.6141 60.5109 36.2549 61.0355 35.7176 61.2928C31.0219 63.5453 28.3299 66.7191 28.3299 70.0004C28.3299 76.2943 38.1996 81.6377 49.8842 81.667C50.0051 81.6661 50.1197 81.6658 50.2294 81.6655H50.2296H50.2298C50.5199 81.6648 50.7755 81.6641 51.0235 81.6523C62.4166 81.3447 71.6631 76.1186 71.6631 70.0004C71.6631 66.7191 68.9694 63.5453 64.2721 61.291C63.4596 60.9062 63.1018 59.9439 63.4658 59.1219C63.8299 58.2998 64.7828 57.9178 65.6139 58.2609C68.1061 54.3277 71.6754 51.193 75.8975 49.2295C75.6238 48.6787 75.061 48.3314 74.4461 48.3336H64.6807C61.2418 54.7053 57.6279 60.6479 55.1973 64.4541C58.1274 65.8187 59.9963 68.1785 59.9963 70.0002C59.9963 72.6547 56.0086 76.6668 49.9963 76.6668C49.6334 76.6668 49.2703 76.6506 48.927 76.6326C43.4549 76.1754 39.9963 72.3992 39.9963 70.0002C39.9963 68.1785 41.8652 65.8186 44.7951 64.4539C42.6307 61.0645 39.5291 55.9813 36.4459 50.4072ZM14.1643 96.6666L14.1649 96.6664H56.5524C58.2506 96.4291 81.6865 92.8812 88.1506 78.3789L77.2197 52.3256C73.6705 53.9869 70.659 56.6113 68.5279 59.9C72.6569 62.6236 74.9965 66.1877 74.9965 69.9998C74.9965 78.0402 64.518 84.6223 51.1424 84.9836C50.7793 84.9998 50.3871 84.9998 49.9965 84.9998C46.7072 85.0045 43.4293 84.6139 40.2334 83.8361C34.6468 89.4465 23.1171 93.8787 14.1649 96.6664H14.1643V96.6666ZM89.8221 82.3633C85.3455 89.7029 77.1807 94.1006 70.0873 96.6666H95.8231L89.8221 82.3633Z" fill="#9D9D9D"/>
</svg>
