<svg width="58" height="54" viewBox="0 0 58 54" fill="none" xmlns="http://www.w3.org/2000/svg">
<path d="M22.887 19.146C22.887 20.375 23.366 21.532 24.237 22.402C24.432 22.597 24.688 22.695 24.944 22.695C25.2 22.695 25.456 22.597 25.651 22.402C26.042 22.011 26.042 21.379 25.651 20.988C25.159 20.496 24.887 19.842 24.887 19.146C24.887 18.45 25.158 17.796 25.651 17.304C27.446 15.509 27.446 12.587 25.651 10.792C25.26 10.401 24.628 10.401 24.237 10.792C23.846 11.183 23.846 11.815 24.237 12.206C25.252 13.222 25.252 14.874 24.237 15.89C23.366 16.761 22.887 17.917 22.887 19.146Z" fill="#20D994"/>
<path d="M12 19.146C12 20.375 12.479 21.532 13.35 22.402C13.545 22.597 13.801 22.695 14.057 22.695C14.313 22.695 14.569 22.597 14.764 22.402C15.155 22.011 15.155 21.379 14.764 20.988C14.271 20.496 14 19.842 14 19.146C14 18.45 14.271 17.796 14.764 17.304C16.559 15.509 16.559 12.587 14.764 10.792C14.373 10.401 13.741 10.401 13.35 10.792C12.959 11.183 12.959 11.815 13.35 12.206C14.365 13.222 14.365 14.874 13.35 15.89C12.479 16.761 12 17.917 12 19.146Z" fill="#20D994"/>
<path d="M17.887 16.146C17.887 17.375 18.366 18.532 19.237 19.402C19.432 19.597 19.688 19.695 19.944 19.695C20.2 19.695 20.456 19.597 20.651 19.402C21.042 19.011 21.042 18.379 20.651 17.988C20.159 17.496 19.887 16.842 19.887 16.146C19.887 15.45 20.158 14.796 20.651 14.304C22.446 12.509 22.446 9.58703 20.651 7.79203C20.26 7.40103 19.628 7.40103 19.237 7.79203C18.846 8.18303 18.846 8.81503 19.237 9.20603C20.252 10.222 20.252 11.874 19.237 12.89C18.366 13.761 17.887 14.917 17.887 16.146Z" fill="#20D994"/>
<path fill-rule="evenodd" clip-rule="evenodd" d="M10 39.5C10 37.817 11.757 36.5 14 36.5C16.243 36.5 18 37.817 18 39.5C18 41.183 16.243 42.5 14 42.5C11.757 42.5 10 41.183 10 39.5ZM12 39.5C12 39.908 12.779 40.5 14 40.5C15.221 40.5 16 39.908 16 39.5C16 39.092 15.221 38.5 14 38.5C12.779 38.5 12 39.092 12 39.5Z" fill="#20D994"/>
<path fill-rule="evenodd" clip-rule="evenodd" d="M13 31.5C13 29.817 14.757 28.5 17 28.5C19.243 28.5 21 29.817 21 31.5C21 33.183 19.243 34.5 17 34.5C14.757 34.5 13 33.183 13 31.5ZM15 31.5C15 31.908 15.779 32.5 17 32.5C18.221 32.5 19 31.908 19 31.5C19 31.092 18.221 30.5 17 30.5C15.779 30.5 15 31.092 15 31.5Z" fill="#20D994"/>
<path fill-rule="evenodd" clip-rule="evenodd" d="M31 29.5C31 31.183 29.243 32.5 27 32.5C24.757 32.5 23 31.183 23 29.5C23 27.817 24.757 26.5 27 26.5C29.243 26.5 31 27.817 31 29.5ZM29 29.5C29 29.092 28.221 28.5 27 28.5C25.779 28.5 25 29.092 25 29.5C25 29.908 25.779 30.5 27 30.5C28.221 30.5 29 29.908 29 29.5Z" fill="#20D994"/>
<path fill-rule="evenodd" clip-rule="evenodd" d="M41 30.5C41 32.183 39.243 33.5 37 33.5C34.757 33.5 33 32.183 33 30.5C33 28.817 34.757 27.5 37 27.5C39.243 27.5 41 28.817 41 30.5ZM39 30.5C39 30.092 38.221 29.5 37 29.5C35.779 29.5 35 30.092 35 30.5C35 30.908 35.779 31.5 37 31.5C38.221 31.5 39 30.908 39 30.5Z" fill="#20D994"/>
<path fill-rule="evenodd" clip-rule="evenodd" d="M46 31.5C48.243 31.5 50 32.817 50 34.5C50 36.183 48.243 37.5 46 37.5C43.757 37.5 42 36.183 42 34.5C42 32.817 43.757 31.5 46 31.5ZM44 34.5C44 34.908 44.779 35.5 46 35.5C47.221 35.5 48 34.908 48 34.5C48 34.092 47.221 33.5 46 33.5C44.779 33.5 44 34.092 44 34.5Z" fill="#20D994"/>
<path fill-rule="evenodd" clip-rule="evenodd" d="M36 40.5C36 38.817 37.757 37.5 40 37.5C42.243 37.5 44 38.817 44 40.5C44 42.183 42.243 43.5 40 43.5C37.757 43.5 36 42.183 36 40.5ZM38 40.5C38 40.908 38.779 41.5 40 41.5C41.221 41.5 42 40.908 42 40.5C42 40.092 41.221 39.5 40 39.5C38.779 39.5 38 40.092 38 40.5Z" fill="#20D994"/>
<path fill-rule="evenodd" clip-rule="evenodd" d="M25 42.5C25 40.817 26.757 39.5 29 39.5C31.243 39.5 33 40.817 33 42.5C33 44.183 31.243 45.5 29 45.5C26.757 45.5 25 44.183 25 42.5ZM27 42.5C27 42.908 27.779 43.5 29 43.5C30.221 43.5 31 42.908 31 42.5C31 42.092 30.221 41.5 29 41.5C27.779 41.5 27 42.092 27 42.5Z" fill="#20D994"/>
<path d="M24.206 36.768C23.802 36.681 23.404 36.854 23.181 37.173C22.595 37.184 22.06 37.526 21.803 38.051C21.103 38.079 20.483 38.578 20.332 39.294C20.218 39.835 20.564 40.365 21.105 40.479C21.174 40.494 21.243 40.5 21.312 40.5C21.641 40.5 21.946 40.337 22.13 40.073C22.716 40.062 23.251 39.72 23.508 39.195C24.208 39.167 24.828 38.668 24.979 37.952C25.092 37.411 24.746 36.881 24.206 36.768Z" fill="#20D994"/>
<path d="M33.87 37.0491C33.579 36.5411 33.023 36.2711 32.439 36.2611C32.295 36.0211 32.089 35.8231 31.835 35.6871C31.465 35.4881 31.04 35.4441 30.64 35.5681C30.111 35.7281 29.812 36.2861 29.973 36.8141C30.092 37.2101 30.434 37.4761 30.82 37.5191C30.964 37.7721 31.177 37.9811 31.44 38.1221C31.693 38.2581 31.975 38.3111 32.251 38.3081C32.395 38.5481 32.601 38.7461 32.854 38.8821C33.085 39.0061 33.338 39.0701 33.593 39.0701C33.746 39.0701 33.899 39.0481 34.049 39.0021C34.578 38.8421 34.877 38.2841 34.716 37.7561C34.597 37.3581 34.255 37.0921 33.87 37.0491Z" fill="#20D994"/>
<path d="M27.11 34.0491C26.819 33.5411 26.272 33.2621 25.679 33.2611C25.535 33.0211 25.329 32.8231 25.075 32.6871C24.705 32.4891 24.28 32.4451 23.88 32.5681C23.351 32.7281 23.052 33.2861 23.213 33.8141C23.332 34.2101 23.674 34.4761 24.06 34.5191C24.204 34.7721 24.417 34.9811 24.68 35.1221C24.933 35.2581 25.216 35.3111 25.491 35.3081C25.635 35.5481 25.841 35.7461 26.094 35.8821C26.325 36.0061 26.578 36.0701 26.833 36.0701C26.986 36.0701 27.139 36.0481 27.289 36.0021C27.818 35.8421 28.117 35.2841 27.956 34.7561C27.838 34.3581 27.496 34.0921 27.11 34.0491Z" fill="#20D994"/>
<path fill-rule="evenodd" clip-rule="evenodd" d="M57.846 45.093C57.859 44.934 57.857 44.774 57.819 44.614L50.065 24.642L54.971 4.739C54.9753 4.72054 54.9741 4.70209 54.9728 4.68363C54.9718 4.66809 54.9707 4.65254 54.973 4.637C54.9755 4.61802 54.9805 4.59973 54.9856 4.58134C54.9928 4.55515 55 4.52878 55 4.5V1.5C55 0.947 54.553 0.5 54 0.5H4C3.448 0.5 3 0.947 3 1.5V4.5C3 5.053 3.448 5.5 4 5.5H4.149L8.346 23.966C8.172 24.142 8.026 24.348 7.952 24.598L0.222 44.482L0.181 44.615C0.137 44.802 0.137 44.989 0.162 45.173C0.068 45.348 0 45.54 0 45.753V51.911C0 52.787 0.713 53.5 1.589 53.5H56.411C57.287 53.5 58 52.787 58 51.911V45.628C58 45.431 57.936 45.255 57.846 45.093ZM34.429 44.5H34.398C33.68 44.5 33.064 45.001 32.898 45.72C32.8734 45.8266 32.8353 45.9272 32.7971 46.0283L32.7969 46.0288L32.772 46.095C32.7618 46.1229 32.753 46.1513 32.7442 46.1798C32.7305 46.2239 32.7168 46.2681 32.698 46.31C32.6674 46.3774 32.6291 46.4405 32.5908 46.5035L32.5907 46.5037C32.5739 46.5313 32.5571 46.559 32.541 46.587C32.5249 46.6149 32.5096 46.6433 32.4943 46.6718C32.4628 46.7301 32.4313 46.7886 32.393 46.843C32.3687 46.8774 32.3406 46.9089 32.3125 46.9404L32.3125 46.9404C32.2932 46.962 32.2739 46.9836 32.256 47.006C32.2378 47.0285 32.2198 47.0512 32.2017 47.0739C32.1356 47.1571 32.0692 47.2406 31.993 47.316C31.9803 47.3282 31.9665 47.3392 31.9526 47.3504C31.9452 47.3562 31.9379 47.3621 31.9307 47.3681C31.9257 47.3723 31.9208 47.3766 31.916 47.381C31.333 47.928 30.558 48.313 29.692 48.447C29.467 48.482 29.235 48.5 29 48.5C28.765 48.5 28.533 48.482 28.308 48.447C27.432 48.312 26.647 47.92 26.063 47.363C26.0545 47.3545 26.045 47.347 26.0355 47.3395C26.026 47.332 26.0165 47.3245 26.008 47.316C25.9168 47.2248 25.8376 47.1248 25.7582 47.0246L25.7582 47.0246L25.7582 47.0245L25.7582 47.0245L25.7582 47.0245L25.7581 47.0245L25.7581 47.0244L25.7581 47.0244L25.73 46.989C25.714 46.969 25.6969 46.9499 25.6799 46.9307C25.6542 46.902 25.6286 46.8732 25.607 46.842C25.5614 46.7772 25.5245 46.7083 25.4875 46.6394L25.4873 46.6391C25.4724 46.6113 25.4575 46.5835 25.442 46.556C25.4257 46.527 25.4083 46.4985 25.3909 46.4699C25.3591 46.4178 25.3272 46.3656 25.302 46.31C25.2767 46.2549 25.2586 46.1964 25.2405 46.138L25.2405 46.138C25.2307 46.1064 25.2209 46.0749 25.21 46.044C25.1994 46.0139 25.1882 45.9841 25.177 45.9542C25.148 45.8769 25.119 45.7998 25.101 45.719C24.936 45.001 24.32 44.5 23.602 44.5H23.571H10.773C7.78 42.564 6 38.952 6 36.5C6 30.537 16.533 25.5 29 25.5C41.467 25.5 52 30.537 52 36.5C52 38.952 50.22 42.564 47.227 44.5H34.429ZM15.508 25.5H9.747L8.356 29.079C10.244 27.645 12.675 26.428 15.508 25.5ZM49.644 29.078C47.756 27.644 45.325 26.428 42.492 25.5H48.253L49.644 29.078ZM55.639 44.5L53.557 39.144C53 40.962 51.909 42.9 50.337 44.5H55.639ZM5 2.5H53V3.5H32.93C32.617 3.5 32.322 3.646 32.132 3.896C31.943 4.146 31.882 4.47 31.967 4.772C31.989 4.85 32 4.924 32 5C32 5.71 30.973 6.5 29.5 6.5C28.027 6.5 27 5.71 27 5C27 4.924 27.011 4.85 27.033 4.772C27.118 4.47 27.057 4.146 26.868 3.896C26.679 3.646 26.384 3.5 26.07 3.5H5V2.5ZM29.5 8.5C27.195 8.5 25.346 7.218 25.043 5.5H6.2L10.292 23.5H48.287L52.724 5.5H33.957C33.653 7.218 31.805 8.5 29.5 8.5ZM4.443 39.143C5 40.962 6.091 42.9 7.664 44.5H2.361L4.443 39.143ZM2 46.5V51.5H56V46.5H47.794H34.762C34.053 48.87 31.73 50.5 29.001 50.5C26.272 50.5 23.949 48.87 23.24 46.5H10.208H2Z" fill="#9D9D9D"/>
</svg>
