<svg fill="none" height="184" viewBox="0 0 159 184" width="159" xmlns="http://www.w3.org/2000/svg"><path clip-rule="evenodd" d="m117.644 93.1616c.274-5.1284.275-9.0301.275-10.2157 0-7.1351-.297-14.2702-.892-21.1082-1.189-12.4865-4.162-24.0811-8.919-34.1891-4.602-9.8439-9.6984-16.277-14.061-20.43856-.0569-.05444-.1134-.1082-.1699-.16196l-.0019-.00179c-.0275-.02584-.055-.05201-.0822-.07788l-.0042-.00399c-5.106-4.8336-9.1427-6.469221-10.1417-6.8740061l-.0443-.0179477c-.0843-.0344911-.1418-.058182-.1704-.0724662h-1.7838c-.0303.0151836-.0941.0412324-.1892.0800893-1.7663.7216697-14.3459 5.8613307-24.7837 27.8657107-4.7567 10.108-7.7299 21.7026-8.9189 34.1891-.5948 6.838-.8919 13.9731-.8919 21.1082 0 1.1281.0003 5.2002.2916 10.5588-3.8139 2.7485-15.1566 13.1951-15.1566 34.3331v11.892c0 2.378 1.1891 4.162 3.2704 5.351l.0031.001c.8909.297 1.7817.594 2.6725.594 1.1891 0 2.3785-.595 3.8648-1.487l17.0201-11.862c1.9894 1.611 5.0657 3.577 9.406 5.053-4.5424 6.171-4.8779 14.604-.5612 21.079l12.4864 18.433c.5948.595 1.4866 1.189 2.3785 1.189.8914 0 1.7828-.594 2.6741-1.188l.0016-.001 12.1893-18.432c4.3985-6.873 3.9635-15.524-.8281-21.489 4.1806-1.467 7.1576-3.382 9.0966-4.955l17.894 12.471c1.189.892 2.378 1.189 3.567 1.189.892 0 1.784-.297 2.676-.892 2.081-1.189 3.27-2.973 3.27-5.351v-11.892c0-22.157-12.462-32.5662-15.437-34.6764zm-34.8495-86.78841c.0686.03589.1404.07386.2146.11358l.0004.00021.0181.00979.0185.00986c1.2733.68843 3.3379 1.98655 5.8258 4.21247 2.8398 2.5582 6.2245 6.3603 9.6283 11.9266-4.7333 2.6426-10.0526 4.1111-15.9597 4.1111-5.907 0-11.2263-1.4685-15.9596-4.1111 3.4038-5.566 6.7885-9.3684 9.6282-11.9266 2.4879-2.22592 4.5525-3.52439 5.8259-4.21247.0124-.00655.0245-.0131.0366-.01965l.0003-.00021c.0742-.04006.146-.07804.2147-.11358.0881-.04598.1745-.09023.2539-.12995.0795.03972.1659.08397.254.12995zm-20.4699 24.24831c-4.4595 9.5136-7.4327 20.5135-8.6218 32.1081-.5947 6.5408-.8919 13.6759-.8912 20.5132 0 2.7216.0979 6.8069.3968 11.4113.1976.2638.1979.5564.1979 1.0752 1.1895 15.1617 3.8651 26.1627 7.7299 30.0267l.2972.298.2971.297c.3105.31.538.703.6864 1.134 1.488 1.301 4.3302 3.203 8.8269 4.514-.0867-.867-.1724-1.79-.2519-2.744-.2289-2.434-.3428-4.916-.3428-7.364 0-14.27 3.8648-29.7293 11.8918-29.7293s11.8918 15.4593 11.8918 29.7293c0 2.181-.091 4.39-.2725 6.567-.0965 1.311-.2094 2.597-.3222 3.839 5.3433-1.559 8.352-4.117 9.526-5.304.087-.122.18-.239.285-.345l.297-.297.297-.297c6.838-7.135 8.027-33.2972 8.027-42.8109 0-7.1351-.297-13.9731-.892-20.5135-1.189-11.8918-3.865-22.5945-8.621-32.1081-.461-.9887-.925-1.935-1.392-2.8488-5.4642 3.2226-12.0356 4.9301-18.8245 4.9301-6.7884 0-13.3602-1.7075-18.8245-4.9301-.4665.9138-.9312 1.8601-1.3914 2.8488zm20.2159 115.0545c-.2111 0-1.6221-1.053-3.0613-4.751-1.4898-3.974-2.8847-10.387-2.8847-19.033 0-14.974 4.1839-23.254 5.7973-23.7595 1.6134.5052 5.7973 8.7855 5.7973 23.7595 0 4.756-.2972 9.513-1.1891 13.675 0 .156.0125.322.0307.492-.6223 2.729-1.3703 4.894-2.096 6.474-1.1831 2.393-2.2158 3.143-2.3942 3.143zm-44.5946-17.838v11.892l16.6816-11.706c-4.1059-6.242-6.0405-17.467-6.9512-27.158-4.1543 4.192-9.7304 12.793-9.7304 26.972zm54.7026 27.648-9.8108 14.568-9.8108-14.568c-3.2613-4.447-2.9739-10.372.2711-14.237.3003.935.6264 1.826.9782 2.666 1.8992 4.665 4.4867 7.266 7.4714 7.654.0097.001.0194.003.0291.004l.0129.002.0162.003c.0926.011.186.019.2794.025.0292.002.0578.006.0871.008.1219.007.2446.011.3679.011s.246-.004.3679-.011l.0195-.002c.0172-.001.0344-.003.0516-.005.0051 0 .0102 0 .0153-.001.0937-.007.1878-.014.2808-.026.0089-.001.0176-.002.0263-.003l.018-.003c.0028-.001.0055-.001.0083-.001 3.5233-.455 6.5314-3.986 9.0231-10.354 2.9732 3.865 3.2707 9.811.2975 14.27zm17.5405-27.351 16.946 11.892v-11.892c0-14.27-5.648-22.892-9.811-27.054-1.189 12.784-3.567 21.703-7.135 27.054z" fill="#fff" fill-rule="evenodd"/><g stroke="#fff" stroke-linecap="round" stroke-linejoin="round" stroke-width="7"><path d="m135.243 38.1082v18.2432" opacity=".7"/><path d="m113.351 167.027v12.568" opacity=".7"/><path d="m47.9188 156.432v12.568" opacity=".7"/><path d="m26.5946 70.5405v18.2433" opacity=".7"/><path d="m26.5946 19.4595v18.2432" opacity=".7"/><path d="m3.81079 44.5945v34.4594" opacity=".7"/><path d="m155.216 40.1351v42.1622" opacity=".7"/><path d="m135.243 21.0811v5.6756" opacity=".7"/><path d="m113.351 150v5.676" opacity=".7"/><path d="m26.5946 53.5134v5.6757" opacity=".7"/></g><path clip-rule="evenodd" d="m106.324 62.4323c0 13.0812-10.7023 23.7839-23.7835 23.7839s-23.7839-10.7027-23.7839-23.7839 10.7027-23.7839 23.7839-23.7839 23.7835 10.7027 23.7835 23.7839zm-5.946 0c0-9.8108-8.0267-17.8378-17.8375-17.8378s-17.8378 8.027-17.8378 17.8378 8.027 17.8379 17.8378 17.8379 17.8375-8.0271 17.8375-17.8379z" fill="#fff" fill-rule="evenodd"/><path clip-rule="evenodd" d="m94.4322 62.4325c0 6.5405-5.3513 11.8918-11.8917 11.8918-6.5405 0-11.8918-5.3513-11.8918-11.8918 0-6.5404 5.3513-11.8917 11.8918-11.8917 6.5404 0 11.8917 5.3513 11.8917 11.8917zm-5.9457 0c0-3.2703-2.6757-5.946-5.946-5.946-3.2704 0-5.9461 2.6757-5.9461 5.946 0 3.2704 2.6757 5.9461 5.9461 5.9461 3.2703 0 5.946-2.6757 5.946-5.9461z" fill="#fff" fill-rule="evenodd" opacity=".7"/></svg>