<svg width="60" height="53" viewBox="0 0 60 53" fill="none" xmlns="http://www.w3.org/2000/svg">
<path fill-rule="evenodd" clip-rule="evenodd" d="M58.565 25.357C58.118 24.879 57.488 24.605 56.836 24.605H56.642C57.521 23.092 57.999 21.374 57.999 19.605C57.999 15.616 55.613 12.025 51.991 10.447C51.906 5.00698 47.46 0.60498 42 0.60498C36.541 0.60498 32.096 5.00398 32.008 10.442C31.804 10.394 31.594 10.366 31.38 10.366C30.491 10.366 29.654 10.8 29.143 11.526L28.894 11.88C28.689 12.17 28.304 12.275 27.982 12.125L27.59 11.943C26.783 11.567 25.842 11.611 25.071 12.055C24.3 12.499 23.793 13.294 23.713 14.179L23.674 14.61C23.66 14.764 23.592 14.979 23.503 15.209C23.274 15.1 23.11 14.876 23.086 14.609L23.047 14.18C22.971 13.34 22.522 12.644 21.879 12.203L25.026 7.73698C25.639 6.86598 25.877 5.80498 25.693 4.75098C25.51 3.69498 24.93 2.77598 24.06 2.16298C22.256 0.89298 19.756 1.32498 18.486 3.12898L12.726 11.304C12.534 11.577 12.392 11.873 12.275 12.177C12.182 12.181 12.083 12.172 11.981 12.125L11.589 11.943C10.782 11.569 9.83901 11.612 9.07001 12.056C8.30001 12.5 7.79301 13.294 7.71301 14.179L7.67401 14.61C7.64201 14.965 7.36101 15.246 7.00601 15.278L6.57601 15.317C5.69101 15.397 4.89601 15.905 4.45201 16.674C4.00701 17.445 3.96501 18.386 4.33901 19.195L4.52001 19.585C4.67001 19.909 4.56701 20.293 4.27501 20.498L3.92201 20.747C3.19501 21.26 2.76101 22.097 2.76101 22.986C2.76101 23.579 2.96901 24.139 3.31301 24.604H2.37301C1.72101 24.604 1.09101 24.878 0.644007 25.356C0.193007 25.838 -0.0399929 26.494 0.00500708 27.153C0.597007 35.9 6.16101 40.292 14.334 44.195C15.246 44.631 15.999 45.355 16.456 46.237C16.902 47.099 16.831 48.211 16.262 49.157C15.833 49.869 15.821 50.726 16.23 51.45C16.639 52.174 17.379 52.605 18.21 52.605H41C41.831 52.605 42.571 52.173 42.98 51.45C43.389 50.726 43.377 49.869 42.938 49.139C42.379 48.21 42.309 47.099 42.754 46.238C43.21 45.356 43.963 44.631 44.876 44.195C53.047 40.292 58.612 35.901 59.205 27.154C59.249 26.494 59.015 25.839 58.565 25.357ZM56 19.605C56 21.425 55.375 23.184 54.232 24.605H49V20.605C49 20.052 48.553 19.605 48 19.605C47.447 19.605 47 20.052 47 20.605V24.605H43.469C43.55 24.495 43.62 24.379 43.683 24.259L43.6854 24.2553L43.688 24.2515C43.6898 24.249 43.6915 24.2465 43.693 24.244C43.781 24.074 43.844 23.892 43.895 23.707C43.908 23.661 43.919 23.615 43.929 23.567C43.97 23.377 43.999 23.184 43.999 22.986C43.999 22.096 43.565 21.26 42.839 20.75L42.609 20.587C42.6519 20.5843 42.6939 20.5793 42.7358 20.5744C42.7721 20.5701 42.8083 20.5658 42.845 20.563C42.965 20.553 43.085 20.541 43.204 20.526C43.401 20.502 43.596 20.472 43.789 20.437L43.8765 20.4211L43.8767 20.4211C43.9618 20.4059 44.0469 20.3906 44.131 20.372C44.339 20.327 44.544 20.271 44.747 20.213C44.7817 20.2031 44.8166 20.1939 44.8515 20.1847L44.8515 20.1847L44.8516 20.1846L44.8516 20.1846L44.8517 20.1846C44.9081 20.1697 44.9644 20.1549 45.02 20.137C45.305 20.046 45.584 19.945 45.857 19.83C45.9038 19.8103 45.949 19.7884 45.9941 19.7665L45.9942 19.7664L45.9944 19.7663L45.9945 19.7663L46.0321 19.7481C46.0392 19.7447 46.0464 19.7412 46.0536 19.7379C46.062 19.7339 46.0705 19.7299 46.079 19.726C46.277 19.637 46.474 19.545 46.665 19.443C46.7582 19.3933 46.8491 19.3399 46.9397 19.2866L46.9398 19.2866L46.98 19.263C47.133 19.174 47.285 19.084 47.433 18.987C47.543 18.915 47.651 18.841 47.758 18.765C47.893 18.669 48.026 18.569 48.156 18.467L48.1651 18.4598L48.1652 18.4597C48.2691 18.3782 48.372 18.2975 48.472 18.212C48.5851 18.1155 48.6931 18.0147 48.8014 17.9137L48.83 17.887L48.8806 17.84C48.9649 17.7618 49.0492 17.6836 49.13 17.602C49.2177 17.5127 49.3004 17.419 49.3831 17.3254L49.449 17.251C49.648 17.028 49.836 16.797 50.015 16.556C50.0385 16.5243 50.0625 16.4931 50.0866 16.4618C50.1271 16.409 50.1677 16.3562 50.206 16.301C50.3099 16.1513 50.4057 15.9961 50.5011 15.8416L50.5011 15.8415L50.515 15.819C50.5304 15.7937 50.5461 15.7685 50.5617 15.7432L50.5618 15.7431C50.5968 15.6866 50.6319 15.63 50.665 15.572C50.766 15.397 50.859 15.218 50.949 15.037L50.9698 14.9943C50.9978 14.9368 51.0257 14.8795 51.053 14.821C51.146 14.622 51.233 14.421 51.313 14.215L51.317 14.2047L51.3288 14.1731L51.3478 14.1203L51.362 14.081C51.543 13.594 51.697 13.094 51.801 12.576C54.355 13.957 56 16.644 56 19.605ZM50 10.605C50 6.19398 46.411 2.60498 42 2.60498C37.588 2.60498 34 6.19398 34 10.605C34 11.089 34.049 11.589 34.146 12.095C34.242 12.148 34.347 12.177 34.452 12.184L34.4559 12.1841L34.4605 12.1845C34.4633 12.1847 34.466 12.185 34.469 12.185C34.576 12.189 34.682 12.171 34.782 12.125L35.172 11.944C35.365 11.855 35.565 11.793 35.769 11.751C35.8117 11.7424 35.8548 11.7391 35.898 11.7358L35.898 11.7358C35.9256 11.7336 35.9533 11.7315 35.981 11.728C36.0087 11.7243 36.0363 11.7203 36.0639 11.7162C36.15 11.7036 36.2359 11.691 36.323 11.691C36.3325 11.691 36.342 11.693 36.3515 11.695C36.361 11.697 36.3705 11.699 36.38 11.699C36.532 11.702 36.68 11.729 36.83 11.758C36.8589 11.7634 36.8878 11.767 36.9167 11.7706C36.9627 11.7763 37.0085 11.7821 37.054 11.795C37.274 11.856 37.489 11.941 37.691 12.058C37.993 12.233 38.241 12.473 38.452 12.74L39.879 11.313C40.27 10.922 40.902 10.922 41.293 11.313C41.684 11.704 41.684 12.336 41.293 12.727L39.156 14.863C39.266 15.093 39.49 15.256 39.755 15.28L40.186 15.319C41.071 15.399 41.865 15.906 42.31 16.676C42.411 16.85 42.484 17.035 42.543 17.223C42.5557 17.2619 42.565 17.3012 42.5742 17.3408L42.5804 17.3669L42.586 17.39C42.62 17.53 42.644 17.671 42.656 17.815C42.6573 17.8304 42.6588 17.8457 42.6602 17.8609C42.6643 17.9039 42.6683 17.9464 42.669 17.99C42.673 18.173 42.662 18.356 42.629 18.537L42.628 18.5452L42.6272 18.5538L42.627 18.5561C42.6265 18.5623 42.626 18.5685 42.625 18.575V18.576L42.6383 18.5751L42.6458 18.5747L42.6635 18.574C42.6765 18.5735 42.6894 18.573 42.702 18.572C42.8144 18.5616 42.9254 18.546 43.0367 18.5303L43.089 18.523C43.1236 18.518 43.1584 18.5133 43.1931 18.5086L43.1933 18.5086C43.2848 18.4961 43.3764 18.4836 43.467 18.467C43.5608 18.4492 43.6528 18.4271 43.7448 18.4051L43.825 18.386L43.8961 18.3696C44.0016 18.3454 44.1071 18.3212 44.21 18.291C44.3004 18.2649 44.3881 18.2349 44.4764 18.2047L44.537 18.184C44.667 18.141 44.797 18.098 44.924 18.048C45.002 18.0179 45.0783 17.9835 45.1545 17.9492L45.1546 17.9492L45.1546 17.9492L45.1547 17.9491L45.1548 17.9491L45.222 17.919L45.2404 17.9108C45.3634 17.8565 45.487 17.8019 45.607 17.741C45.6748 17.7063 45.7415 17.6688 45.808 17.6314L45.873 17.595L45.9076 17.5757L45.9078 17.5756C46.0251 17.5102 46.1422 17.4449 46.256 17.373C46.32 17.333 46.3814 17.2904 46.4429 17.2479L46.489 17.216C46.617 17.128 46.744 17.04 46.867 16.946C46.9193 16.9062 46.9697 16.864 47.0203 16.8217L47.063 16.786C47.19 16.681 47.316 16.576 47.436 16.464C47.4792 16.4232 47.5204 16.3818 47.5618 16.3403L47.593 16.309C47.719 16.185 47.843 16.06 47.96 15.928C47.9867 15.898 48.0124 15.8671 48.0382 15.8362C48.0511 15.8208 48.064 15.8053 48.077 15.79C48.201 15.645 48.322 15.497 48.435 15.343C48.4513 15.3204 48.4673 15.2974 48.4833 15.2742L48.512 15.233C48.633 15.064 48.749 14.89 48.856 14.711L48.8627 14.6994L48.8765 14.675C48.8833 14.663 48.89 14.651 48.897 14.639C49.012 14.442 49.12 14.242 49.218 14.035L49.23 14.008C49.654 13.107 49.916 12.114 49.975 11.063C49.975 11.062 49.9752 11.0609 49.9755 11.0598L49.9758 11.0585L49.9768 11.0556L49.978 11.053C49.9801 11.0179 49.9825 10.9828 49.9848 10.9478C49.9924 10.8341 50 10.7204 50 10.605ZM25.666 14.791L25.705 14.36C25.726 14.118 25.86 13.909 26.071 13.788C26.281 13.667 26.529 13.654 26.749 13.758L27.143 13.941C28.342 14.495 29.768 14.112 30.529 13.033L30.778 12.679C31.059 12.28 31.705 12.283 31.984 12.678L32.233 13.032C32.743 13.755 33.551 14.156 34.39 14.181H34.419C34.54 14.183 34.662 14.181 34.783 14.167C34.8225 14.1628 34.8615 14.1553 34.9006 14.1478L34.9007 14.1478C34.918 14.1444 34.9355 14.1411 34.953 14.138C34.9742 14.1341 34.9953 14.1305 35.0163 14.1269C35.0768 14.1166 35.1369 14.1063 35.197 14.09C35.341 14.051 35.483 14.002 35.621 13.938L36.012 13.756C36.233 13.654 36.481 13.665 36.69 13.786C36.9 13.908 37.034 14.116 37.055 14.359L37.094 14.788C37.214 16.106 38.257 17.15 39.574 17.268L40.004 17.307C40.247 17.328 40.456 17.462 40.577 17.673C40.699 17.883 40.71 18.131 40.608 18.35L40.424 18.746C40.421 18.7528 40.4187 18.7593 40.4166 18.7657C40.4156 18.7689 40.4146 18.772 40.4137 18.7751L40.4137 18.7751L40.4136 18.7752C40.4114 18.7827 40.4091 18.7901 40.406 18.798C40.05 19.614 40.124 20.521 40.546 21.255L40.555 21.2705L40.564 21.286C40.618 21.377 40.675 21.464 40.74 21.549C40.7656 21.5834 40.7934 21.6157 40.8214 21.6482L40.852 21.684L40.8673 21.7016L40.8862 21.7236L40.8863 21.7236L40.8863 21.7236L40.8863 21.7236C40.9235 21.7669 40.9607 21.8102 41.002 21.85C41.104 21.951 41.213 22.046 41.333 22.13L41.688 22.381C41.886 22.523 42 22.743 42 22.986C42 23.229 41.886 23.448 41.688 23.588L41.332 23.838C41.329 23.84 41.327 23.843 41.323 23.846C41.193 23.939 41.074 24.044 40.963 24.158C40.9337 24.188 40.907 24.2206 40.8803 24.2533C40.867 24.2696 40.8537 24.286 40.84 24.302C40.78 24.373 40.721 24.445 40.669 24.522C40.6599 24.5352 40.6496 24.5476 40.6392 24.56C40.6268 24.5748 40.6144 24.5896 40.604 24.606H27.469C27.55 24.496 27.62 24.379 27.684 24.259L27.6885 24.252L27.693 24.245C27.781 24.074 27.845 23.892 27.896 23.706C27.909 23.66 27.919 23.615 27.929 23.569C27.971 23.38 27.999 23.187 28 22.99V22.988C28 22.8963 27.9856 22.8077 27.9713 22.7189C27.9655 22.6837 27.9598 22.6485 27.955 22.613C27.9501 22.5785 27.9474 22.5436 27.9446 22.5086V22.5086C27.94 22.4504 27.9354 22.3922 27.921 22.336C27.848 22.038 27.709 21.765 27.543 21.509C27.355 21.22 27.128 20.955 26.839 20.751L26.485 20.501C26.194 20.296 26.092 19.913 26.241 19.591L26.424 19.198C26.513 19.006 26.574 18.805 26.616 18.601C26.6241 18.5632 26.6271 18.5255 26.6302 18.4877C26.6321 18.4645 26.634 18.4412 26.637 18.418C26.657 18.274 26.672 18.131 26.669 17.987C26.6676 17.9337 26.6611 17.8809 26.6546 17.8279L26.6503 17.7919L26.647 17.763C26.633 17.634 26.616 17.506 26.584 17.38C26.5646 17.3043 26.5393 17.2321 26.5135 17.1585L26.5135 17.1584L26.507 17.14C26.4967 17.1117 26.4886 17.0829 26.4806 17.054C26.4698 17.0156 26.459 16.9771 26.443 16.94C26.4337 16.9187 26.4205 16.9003 26.4074 16.8821C26.3965 16.8669 26.3856 16.8518 26.377 16.835C26.3659 16.8123 26.3572 16.7889 26.3484 16.7654C26.3375 16.7361 26.3266 16.7068 26.311 16.679C26.2759 16.6187 26.2325 16.5655 26.1888 16.512C26.1666 16.4847 26.1443 16.4573 26.123 16.429C26.1066 16.4069 26.0908 16.3846 26.0751 16.3623L26.0751 16.3622C26.0408 16.3138 26.0067 16.2655 25.967 16.221C25.846 16.086 25.708 15.971 25.564 15.864C25.5445 15.8495 25.5273 15.8323 25.5101 15.8152L25.5101 15.8152C25.4894 15.7945 25.4686 15.7738 25.444 15.758C25.548 15.454 25.636 15.12 25.666 14.791ZM22.909 3.79898C22.008 3.16398 20.757 3.37998 20.122 4.28198L14.361 12.458C14.203 12.682 14.098 12.933 14.043 13.195C14.007 13.368 14.002 13.541 14.011 13.711L14.0131 13.7432C14.0152 13.7755 14.0173 13.8077 14.021 13.84C14.041 14.01 14.075 14.177 14.136 14.335C14.138 14.34 14.1405 14.3445 14.143 14.349C14.1455 14.3535 14.148 14.358 14.15 14.363C14.211 14.512 14.293 14.651 14.388 14.782C14.414 14.817 14.44 14.852 14.468 14.885C14.577 15.015 14.697 15.138 14.84 15.239C14.841 15.2395 14.8418 15.2402 14.8425 15.241C14.8433 15.2417 14.844 15.2425 14.845 15.243C15.279 15.55 15.811 15.664 16.338 15.576C16.866 15.485 17.325 15.195 17.631 14.76L19.49 12.123C19.49 12.122 19.491 12.122 19.491 12.122L23.392 6.58598C23.698 6.15298 23.815 5.62198 23.724 5.09298C23.633 4.56498 23.343 4.10498 22.909 3.79898ZM5.42701 23.837L5.07301 23.588C4.87401 23.448 4.76001 23.229 4.76001 22.985C4.76001 22.741 4.87401 22.522 5.07301 22.381L5.42501 22.133C6.50801 21.372 6.89001 19.947 6.33401 18.743L6.15301 18.353C6.05001 18.132 6.06201 17.884 6.18301 17.673C6.30501 17.463 6.51301 17.329 6.75601 17.308L7.18501 17.269C8.50301 17.151 9.54601 16.108 9.66601 14.79L9.70501 14.359C9.72601 14.117 9.86001 13.909 10.07 13.787C10.279 13.666 10.528 13.655 10.748 13.757L11.142 13.94C11.428 14.072 11.731 14.149 12.039 14.173C12.0406 14.1844 12.0441 14.1959 12.0475 14.2073C12.0503 14.2169 12.0532 14.2264 12.055 14.236C12.0565 14.245 12.0568 14.2539 12.057 14.2628C12.0573 14.2717 12.0575 14.2805 12.059 14.289C12.0715 14.3603 12.0926 14.428 12.1138 14.4959L12.1138 14.496C12.1265 14.5367 12.1391 14.5774 12.15 14.619C12.1597 14.6558 12.1688 14.6929 12.1778 14.7299C12.2005 14.8224 12.2231 14.915 12.256 15.005C12.3002 15.1238 12.3579 15.2355 12.4156 15.3474C12.4298 15.3749 12.444 15.4024 12.458 15.43C12.4752 15.4636 12.4909 15.4976 12.5067 15.5316C12.5349 15.5925 12.563 15.6532 12.599 15.711C12.697 15.87 12.817 16.014 12.937 16.158C12.9588 16.1841 12.9786 16.2113 12.9984 16.2384L12.9984 16.2384C13.0248 16.2747 13.0511 16.3108 13.082 16.344C13.266 16.539 13.469 16.719 13.693 16.876C13.89 17.015 14.1 17.129 14.314 17.229C14.3682 17.2537 14.4231 17.2746 14.4786 17.2958L14.521 17.312C14.674 17.373 14.829 17.425 14.988 17.466C15.068 17.487 15.147 17.507 15.229 17.522C15.398 17.555 15.569 17.574 15.742 17.585C15.7682 17.5866 15.794 17.5892 15.8198 17.5917C15.8581 17.5956 15.8962 17.5994 15.935 17.6C15.9435 17.6 15.9518 17.601 15.96 17.602C15.9683 17.603 15.9765 17.604 15.985 17.604C16.216 17.604 16.448 17.584 16.68 17.544C17.735 17.36 18.654 16.78 19.267 15.91L20.738 13.822C20.905 13.933 21.034 14.113 21.056 14.359L21.095 14.788C21.215 16.106 22.258 17.149 23.575 17.268L24.005 17.307C24.099 17.315 24.181 17.354 24.261 17.393L24.279 17.4021L24.279 17.4021C24.3119 17.4187 24.3444 17.4351 24.374 17.458C24.428 17.498 24.472 17.55 24.513 17.604C24.5198 17.6128 24.5267 17.6214 24.5337 17.63L24.5337 17.6301C24.5535 17.6546 24.5732 17.6791 24.588 17.708C24.636 17.802 24.67 17.901 24.675 18.003C24.675 18.0048 24.6748 18.0071 24.6746 18.0094C24.6744 18.0109 24.6743 18.0124 24.6742 18.0138C24.6741 18.015 24.674 18.016 24.674 18.017C24.678 18.129 24.657 18.243 24.608 18.349L24.425 18.742C24.216 19.193 24.14 19.675 24.183 20.142L24.1841 20.1476C24.1846 20.1498 24.1851 20.152 24.1855 20.1543C24.1858 20.1565 24.186 20.1587 24.186 20.161C24.201 20.31 24.226 20.457 24.265 20.602C24.426 21.204 24.792 21.75 25.332 22.13L25.575 22.301L25.686 22.379C25.886 22.524 26 22.743 26 22.986C26 23.108 25.972 23.223 25.918 23.326C25.9095 23.343 25.8955 23.3562 25.8813 23.3695C25.8705 23.3797 25.8596 23.3899 25.851 23.402L25.8415 23.4154C25.7968 23.479 25.7523 23.5423 25.686 23.589L25.673 23.598L25.331 23.838C25.194 23.935 25.068 24.047 24.952 24.167C24.9302 24.1894 24.911 24.2135 24.892 24.2376C24.8795 24.2533 24.8671 24.269 24.854 24.284C24.778 24.372 24.705 24.462 24.64 24.559C24.6384 24.5614 24.6366 24.5637 24.6348 24.566C24.6311 24.5708 24.6271 24.5755 24.6232 24.5802C24.6163 24.5883 24.6094 24.5963 24.604 24.605H6.15601C5.96501 24.305 5.71801 24.042 5.42701 23.837ZM40.977 45.319C41.633 44.052 42.711 43.012 44.014 42.39C51.768 38.687 56.68 34.824 57.209 27.019C57.22 26.869 57.148 26.769 57.105 26.722C57.054 26.668 56.967 26.605 56.837 26.605H54.694H41.305H41.242H25.242H5.52001H2.37401C2.24301 26.605 2.15601 26.668 2.10601 26.722C2.06301 26.769 1.99101 26.87 2.00101 27.019C2.52901 34.824 7.44101 38.687 15.196 42.389C16.498 43.01 17.577 44.05 18.232 45.317C18.995 46.792 18.9 48.651 17.985 50.17C17.906 50.302 17.935 50.402 17.971 50.465C18.007 50.529 18.078 50.605 18.21 50.605H40.998C41.131 50.605 41.201 50.528 41.237 50.465C41.274 50.402 41.302 50.302 41.234 50.188C40.309 48.652 40.214 46.793 40.977 45.319Z" fill="#9D9D9D"/>
<path d="M37 43.605H28.293C27.741 43.605 27.293 44.052 27.293 44.605C27.293 45.158 27.741 45.605 28.293 45.605H37C37.552 45.605 38 45.158 38 44.605C38 44.052 37.552 43.605 37 43.605Z" fill="#20D994"/>
<path d="M22 45.605H25.386C25.938 45.605 26.386 45.158 26.386 44.605C26.386 44.052 25.938 43.605 25.386 43.605H22C21.448 43.605 21 44.052 21 44.605C21 45.158 21.447 45.605 22 45.605Z" fill="#20D994"/>
<path d="M37 46.605H22C21.448 46.605 21 47.052 21 47.605C21 48.158 21.448 48.605 22 48.605H37C37.552 48.605 38 48.158 38 47.605C38 47.052 37.552 46.605 37 46.605Z" fill="#20D994"/>
<path d="M39.879 9.89804C40.074 10.093 40.33 10.191 40.586 10.191C40.842 10.191 41.098 10.093 41.293 9.89804C41.684 9.50704 41.684 8.87504 41.293 8.48404L38.464 5.65604C38.073 5.26504 37.441 5.26504 37.05 5.65604C36.659 6.04704 36.659 6.67904 37.05 7.07004L39.879 9.89804Z" fill="#20D994"/>
<path d="M45.535 15.554C45.73 15.749 45.986 15.847 46.242 15.847C46.498 15.847 46.754 15.749 46.949 15.554C47.34 15.163 47.339 14.531 46.949 14.14L44.12 11.312C43.729 10.921 43.097 10.921 42.706 11.312C42.315 11.703 42.315 12.335 42.706 12.726L45.535 15.554Z" fill="#20D994"/>
<path d="M43.414 10.191C43.67 10.191 43.926 10.093 44.121 9.89804L46.95 7.07004C47.34 6.67904 47.341 6.04704 46.95 5.65604C46.559 5.26504 45.927 5.26504 45.536 5.65604L42.707 8.48404C42.316 8.87504 42.316 9.50704 42.707 9.89804C42.902 10.093 43.158 10.191 43.414 10.191Z" fill="#20D994"/>
<path d="M49 18.605C49 19.158 49.447 19.605 50 19.605H54C54.553 19.605 55 19.158 55 18.605C55 18.052 54.553 17.605 54 17.605H50C49.447 17.605 49 18.052 49 18.605Z" fill="#20D994"/>
<path d="M30.5 19.105C30.756 19.105 31.012 19.007 31.207 18.812L32.707 17.312C33.098 16.921 33.098 16.289 32.707 15.898C32.316 15.507 31.684 15.507 31.293 15.898L29.793 17.398C29.402 17.789 29.402 18.421 29.793 18.812C29.988 19.007 30.244 19.105 30.5 19.105Z" fill="#20D994"/>
<path d="M35.293 21.312C35.488 21.507 35.744 21.605 36 21.605C36.256 21.605 36.512 21.507 36.707 21.312C37.098 20.921 37.098 20.289 36.707 19.898L35.707 18.898C35.316 18.507 34.684 18.507 34.293 18.898C33.902 19.289 33.902 19.921 34.293 20.312L35.293 21.312Z" fill="#20D994"/>
<path d="M31.293 20.898L30.293 21.898C29.902 22.289 29.902 22.921 30.293 23.312C30.488 23.507 30.744 23.605 31 23.605C31.256 23.605 31.512 23.507 31.707 23.312L32.707 22.312C33.098 21.921 33.098 21.289 32.707 20.898C32.316 20.507 31.683 20.507 31.293 20.898Z" fill="#20D994"/>
</svg>
