<svg fill="none" height="180" viewBox="0 0 200 180" width="200" xmlns="http://www.w3.org/2000/svg"><path clip-rule="evenodd" d="m199.383 145.711c-2.595-10.601-9.603-19.586-19.254-24.684 1.071-15.449.764-56.5461-27.764-87.559h.57c7.342-.0078 13.291-5.9572 13.299-13.2986v-6.6499c-.008-7.34141-5.957-13.290761-13.299-13.298553h-29.922c-7.895.010909-14.697 5.564803-16.287 13.298553h-10.3099c-1.8362 0-3.3245 1.4883-3.3245 3.3246 0 1.8362 1.4883 3.3245 3.3245 3.3245h10.3099c1.59 7.7338 8.392 13.2881 16.287 13.2986h1.268c3.019 11.0182 14.356 59.0937-9.369 85.1608-4.437 5.015-10.803 7.9-17.4997 7.93h-10.9706v-23.272c.0019-5.3286-2.1343-10.4348-5.9307-14.1735 3.5996-1.5966 5.9233-5.1616 5.9307-9.0993v-6.6495c-.0059-5.506-4.4681-9.9682-9.974-9.9741h-66.49367c-5.50598.0059-9.96818451 4.4681-9.97403 9.9741v6.6495c.00740393 3.9377 2.33104 7.5027 5.93065 9.0993-3.79597 3.7387-5.93259672 8.8449-5.93065 14.1735v43.22c0 .051.0133757.097.026751.143h.0000159c.0113116.039.0226192.078.0258318.119.021039.221.0650653.439.1312983.65.052208.203.124286.399.215065.587.098961.183.215455.356.347922.516.125845.171.268446.328.425456.47.15896.131.33.246.51039.344.1913.117.39467.213.60623.287.03907.013.07376.033.10844.053.04141.024.08279.048.13156.06.2587.063.52442.094.79052.095l.00468.001h9.48464c-2.0345 9.916 2.1265 20.077 10.5316 25.718 8.4051 5.64 19.3858 5.64 27.7905 0 8.4051-5.641 12.5661-15.802 10.5316-25.718h76.1545c-2.031 9.914 2.131 20.072 10.535 25.71 8.403 5.638 19.38 5.638 27.784 0 8.403-5.638 12.566-15.796 10.535-25.71h9.484l.005-.001c.267-.001.532-.033.791-.095.048-.012.09-.036.131-.06.012-.007.023-.014.035-.02.023-.013.047-.025.073-.033.212-.074.415-.17.607-.287.537-.323.98-.781 1.283-1.329.178-.393.295-.81.347-1.238.001-.014.003-.029.006-.043.003-.011.005-.022.008-.033.004-.014.008-.027.011-.041l.001-.001v-.001c.013-.046.027-.092.027-.143-.074-.258-.106-.526-.097-.795zm-46.448-138.84096c3.67.00428 6.645 2.97857 6.649 6.64946v6.6495c-.004 3.6705-2.979 6.6452-6.649 6.6495zm-127.6723 162.08096c5.4542 4.725 13.1759 5.801 19.7135 2.747 6.5377-3.053 10.6687-9.665 10.5464-16.88-.0277-1.69-.2914-3.369-.7831-4.987h-7.0333c.759 1.554 1.158 3.258 1.1673 4.987 0 6.427-5.2099 11.637-11.6365 11.637s-11.6365-5.21-11.6365-11.637c.0094-1.729.4083-3.433 1.1673-4.987h-7.0352c-2.0899 6.907.0764 14.396 5.5301 19.12zm6.9873-14.133c0-2.754 2.2329-4.987 4.987-4.987 2.753.003 4.9839 2.234 4.987 4.987 0 2.754-2.2328 4.987-4.987 4.987-2.7541 0-4.987-2.233-4.987-4.987zm-24.35454-11.636h9.38294 49.2994c-4.7618-12.039-16.3944-19.948-29.3412-19.948-12.9467 0-24.5797 7.909-29.34114 19.948zm71.89634 0h-6.1527c-4.3488-13.629-15.9456-23.687-30.0526-26.066-14.1066-2.378-28.3605 3.322-36.93741 14.772v-28.602c.00779-7.3417 5.95711-13.291 13.29861-13.2988h46.5455c7.3415.0078 13.2908 5.9571 13.2986 13.2988zm-3.3241-59.8443c1.8354-.0016 3.3226-1.4891 3.3245-3.3245v-6.6495c-.0015-1.8355-1.4891-3.3226-3.3245-3.3246h-66.49367c-1.83546.0016-3.3226 1.4891-3.32455 3.3246v6.6495c.00156 1.8354 1.48909 3.3226 3.32455 3.3245zm88.9583-16.6235c6.328 16.4416 9.123 34.0308 8.203 51.6248-6.709-2.113-13.873-2.322-20.694-.602v-41.0488c.006-5.5059 4.468-9.9682 9.974-9.974zm-51.774-46.5456c1.399 3.9736 5.148 6.6366 9.361 6.6495h23.272v-19.94806h-23.272c-4.213.01285-7.962 2.67584-9.361 6.64946h12.685c1.837 0 3.325 1.4883 3.325 3.3246 0 1.8362-1.488 3.3245-3.325 3.3245zm-27.2103 123.0134v-9.974h10.9706c8.5707-.019 16.7257-3.695 22.4157-10.104 25.139-27.6206 15.212-75.0627 11.358-89.6364h11.832c8.052 7.6266 14.651 16.6531 19.476 26.6392-9.002.2229-16.19 7.5756-16.208 16.5814v43.3848c-9.764 4.482-17.186 12.871-20.445 23.109zm63.8253 25.775c5.455 4.726 13.179 5.802 19.718 2.747 6.539-3.054 10.67-9.67 10.544-16.886-.027-1.69-.29-3.369-.781-4.987h-7.036c.759 1.554 1.158 3.258 1.168 4.987 0 6.427-5.21 11.637-11.637 11.637s-11.636-5.21-11.636-11.637c.009-1.729.408-3.433 1.167-4.987h-7.033c-2.093 6.907.071 14.4 5.526 19.126zm6.99-14.139c0-2.754 2.232-4.987 4.987-4.987 2.753.003 4.983 2.234 4.987 4.987 0 2.754-2.233 4.987-4.987 4.987-2.755 0-4.987-2.233-4.987-4.987zm-6.421-29.437c-8.198 3.173-14.699 9.626-17.933 17.801h58.682c-6.351-16.091-24.485-24.057-40.631-17.848-.026.011-.051.021-.077.031-.014.005-.027.011-.041.016z" fill="#fff" fill-rule="evenodd"/></svg>