<svg width="60" height="60" viewBox="0 0 60 60" fill="none" xmlns="http://www.w3.org/2000/svg">
<circle cx="12.525" cy="5.96289" r="1" fill="#20D994"/>
<circle cx="9.52502" cy="8.96289" r="1" fill="#20D994"/>
<circle cx="33.525" cy="8.96289" r="1" fill="#20D994"/>
<circle cx="36.525" cy="5.96289" r="1" fill="#20D994"/>
<circle cx="39.525" cy="8.96289" r="1" fill="#20D994"/>
<circle cx="27.525" cy="14.9629" r="1" fill="#20D994"/>
<circle cx="21.525" cy="14.9629" r="1" fill="#20D994"/>
<circle cx="51.525" cy="14.9629" r="1" fill="#20D994"/>
<circle cx="24.525" cy="17.9629" r="1" fill="#20D994"/>
<circle cx="27.525" cy="20.9629" r="1" fill="#20D994"/>
<circle cx="18.525" cy="17.9629" r="1" fill="#20D994"/>
<circle cx="21.525" cy="20.9629" r="1" fill="#20D994"/>
<circle cx="54.525" cy="17.9629" r="1" fill="#20D994"/>
<circle cx="48.525" cy="17.9629" r="1" fill="#20D994"/>
<circle cx="51.525" cy="20.9629" r="1" fill="#20D994"/>
<path fill-rule="evenodd" clip-rule="evenodd" d="M59.436 11.674C59.493 11.807 59.525 11.953 59.525 12.107V19C59.525 20.401 59.161 21.717 58.525 22.864V60H54.525H36.525H9.37198H7.34498H1.67898L0.474976 52.776L1.08898 52.021L1.59598 52H4.52598V48.375C3.92998 48.342 3.38998 48.145 2.94998 47.766C2.12598 47.058 1.89098 45.946 1.73598 45.211L1.73312 45.1974C1.58659 44.5017 1.40451 43.6372 1.48598 42.747C1.50498 42.537 1.53998 42.326 1.59198 42.121C1.68498 41.741 1.60298 41.328 1.37198 41.017C1.20998 40.798 1.07198 40.561 0.961976 40.309C0.229976 38.644 0.442976 36.485 1.48998 34.937C1.71798 34.6 1.79498 34.202 1.69798 33.874C1.51998 33.274 1.48498 32.642 1.59498 32.045C1.72498 31.347 2.06598 30.718 2.52498 30.215V22.864C1.88898 21.718 1.52498 20.401 1.52498 19V12.283C1.52498 12.105 1.56198 11.935 1.62798 11.781C1.61998 11.641 1.62698 11.5 1.66598 11.363L1.71998 11.219L5.78298 2.395C6.45198 0.94 7.91897 0 9.52098 0H17.69H19.723H29.525H31.525H41.327H43.36H51.529C53.132 0 54.6 0.94 55.268 2.396L59.389 11.384C59.416 11.479 59.432 11.577 59.436 11.674ZM56.695 22.0321L56.695 22.0321C56.7187 21.9942 56.7424 21.9563 56.764 21.917L56.802 21.853C56.8159 21.8273 56.8281 21.8007 56.8403 21.7741L56.8403 21.7741C56.8509 21.7511 56.8614 21.7282 56.873 21.706C56.663 21.523 56.525 21.262 56.525 20.962C56.525 20.441 56.929 20.026 57.438 19.98C57.491 19.661 57.525 19.335 57.525 19V15.963C56.973 15.963 56.525 15.515 56.525 14.963C56.525 14.411 56.973 13.963 57.525 13.963V13H45.723H45.525V13.964C46.077 13.964 46.525 14.412 46.525 14.964C46.525 15.516 46.077 15.964 45.525 15.964V19.001C45.525 19.335 45.559 19.661 45.612 19.981C46.122 20.027 46.525 20.442 46.525 20.963C46.525 21.263 46.386 21.524 46.177 21.707C46.535 22.411 47.027 23.036 47.621 23.547C47.78 23.204 48.122 22.963 48.525 22.963C49.077 22.963 49.525 23.411 49.525 23.963C49.525 24.195 49.433 24.398 49.301 24.568C49.99 24.844 50.739 25 51.525 25C51.764 25 52 24.982 52.233 24.952C52.3 24.9445 52.3663 24.9334 52.4325 24.9224L52.4326 24.9224L52.471 24.916C52.621 24.892 52.769 24.864 52.915 24.829L52.9596 24.818C53.0377 24.7988 53.1157 24.7797 53.193 24.757C53.325 24.719 53.454 24.674 53.583 24.627L53.6306 24.6099C53.6701 24.5958 53.7098 24.5817 53.749 24.566C53.617 24.396 53.525 24.193 53.525 23.961C53.525 23.409 53.973 22.961 54.525 22.961C54.925 22.961 55.265 23.2 55.425 23.54C55.4379 23.529 55.4509 23.5181 55.4638 23.5073L55.4818 23.4923L55.482 23.4921L55.4821 23.4921C55.5243 23.4569 55.5663 23.4219 55.607 23.384C55.6222 23.37 55.6377 23.3563 55.6532 23.3426C55.6697 23.3281 55.6861 23.3137 55.7021 23.2988C55.7088 23.2926 55.7155 23.2863 55.722 23.28C55.896 23.108 56.062 22.925 56.216 22.73L56.2174 22.7284L56.22 22.725C56.2212 22.7233 56.2225 22.7215 56.224 22.72C56.38 22.522 56.525 22.312 56.658 22.092C56.665 22.0804 56.6721 22.0688 56.6793 22.0572L56.695 22.0321ZM24.525 22.963C23.973 22.963 23.525 23.411 23.525 23.963C23.525 24.462 23.897 24.858 24.375 24.933C24.097 24.972 23.815 25 23.525 25C20.216 25 17.525 22.309 17.525 19V17.963V13H29.525V19C29.525 21.784 27.617 24.124 25.042 24.798C25.326 24.622 25.525 24.321 25.525 23.963C25.525 23.41 25.078 22.963 24.525 22.963ZM8.65693 24.9301C8.71036 24.9387 8.76394 24.9472 8.81798 24.954C9.05098 24.982 9.28598 25 9.52498 25C12.834 25 15.525 22.309 15.525 19V13H15.327H3.52498V19C3.52498 20.032 3.78798 21.004 4.25098 21.854L4.28898 21.918C4.31058 21.9573 4.33433 21.9953 4.35798 22.0331L4.358 22.0332C4.37046 22.0531 4.3829 22.073 4.39498 22.093C4.52798 22.313 4.67298 22.523 4.82898 22.721C4.83047 22.7225 4.83172 22.7242 4.83296 22.726L4.83298 22.726L4.83299 22.726C4.83423 22.7278 4.83548 22.7295 4.83698 22.731C4.99198 22.926 5.15798 23.109 5.33198 23.281C5.35255 23.3016 5.37442 23.3208 5.3963 23.3401C5.41271 23.3545 5.42912 23.369 5.44498 23.384C5.56898 23.501 5.69798 23.611 5.83098 23.716C5.90698 23.776 5.98398 23.834 6.06298 23.89C6.16698 23.964 6.27398 24.033 6.38198 24.1L6.43902 24.1359L6.43909 24.1359C6.50787 24.1794 6.57669 24.2228 6.64798 24.262C6.82698 24.36 7.01098 24.45 7.19998 24.53C7.25741 24.5544 7.31658 24.5749 7.37606 24.5955C7.40668 24.6061 7.43739 24.6168 7.46798 24.628C7.59598 24.675 7.72598 24.721 7.85798 24.759C7.94998 24.786 8.04298 24.809 8.13598 24.831C8.28198 24.866 8.42998 24.894 8.57998 24.918L8.61061 24.9227L8.65583 24.9299L8.65638 24.93L8.65693 24.9301ZM31.525 13H43.525V19C43.525 22.309 40.834 25 37.525 25C34.216 25 31.525 22.309 31.525 19V13ZM53.451 3.231C53.107 2.483 52.352 2 51.529 2H43.724L44.542 6.5L45.36 11H45.525H57.023L53.451 3.231ZM31.525 2H33.34C32.879 2.089 32.525 2.476 32.525 2.963C32.525 3.515 32.973 3.963 33.525 3.963C34.077 3.963 34.525 3.515 34.525 2.963C34.525 2.476 34.17 2.089 33.71 2H39.341C38.88 2.089 38.526 2.476 38.526 2.963C38.526 3.515 38.974 3.963 39.526 3.963C40.078 3.963 40.526 3.515 40.526 2.963C40.526 2.476 40.171 2.089 39.711 2H41.692L42.241 5.02C41.831 5.145 41.527 5.511 41.527 5.962C41.527 6.514 41.975 6.962 42.527 6.962C42.5389 6.962 42.5498 6.95876 42.5607 6.9555C42.5708 6.9525 42.5809 6.94948 42.592 6.949L43.327 11H31.525V2ZM29.525 2H19.36L18.542 6.5L17.724 11H29.525V2ZM5.96898 6.772C6.12998 6.883 6.31498 6.963 6.52498 6.963C7.07698 6.963 7.52498 6.515 7.52498 5.963C7.52498 5.5 7.20498 5.128 6.77798 5.014L7.59998 3.23C7.88398 2.611 8.45498 2.192 9.10898 2.06C8.76597 2.219 8.52497 2.561 8.52497 2.963C8.52497 3.515 8.97298 3.963 9.52497 3.963C10.077 3.963 10.525 3.515 10.525 2.963C10.525 2.476 10.17 2.089 9.70998 2H15.341C14.88 2.089 14.526 2.476 14.526 2.963C14.526 3.515 14.974 3.963 15.526 3.963C16.078 3.963 16.526 3.515 16.526 2.963C16.526 2.476 16.171 2.089 15.711 2H17.328L16.51 6.5L16.195 8.23C16.017 8.068 15.786 7.963 15.526 7.963C14.974 7.963 14.526 8.411 14.526 8.963C14.526 9.515 14.974 9.963 15.526 9.963C15.656 9.963 15.779 9.934 15.893 9.889L15.69 11H15.525H4.02198L5.96898 6.772ZM3.68924 44.784L3.69198 44.797L3.69297 44.8017C3.79297 45.2737 3.943 45.9819 4.25198 46.25C4.48198 46.445 4.87898 46.406 5.27398 46.277C5.43998 46.223 5.60498 46.156 5.75898 46.078L5.76505 46.0752L5.77198 46.072C6.07598 45.914 6.48898 45.661 6.88398 45.307C7.00298 45.2 7.11398 45.089 7.21598 44.976L7.22374 44.9678L7.23085 44.9606L7.23096 44.9605C7.23597 44.9555 7.24097 44.9505 7.24598 44.945C7.47298 44.688 7.65598 44.415 7.79398 44.128C7.86298 43.984 7.92398 43.833 7.97198 43.673C8.05798 43.388 8.09198 43.072 8.07398 42.759C8.05598 42.447 7.98798 42.137 7.86998 41.866C7.74598 41.579 7.65998 41.284 7.60998 40.99C7.45998 40.107 7.63698 39.224 8.12698 38.549C8.36798 38.217 8.58898 37.801 8.78198 37.312V37.311C9.01098 36.734 9.12398 36.245 9.12498 35.827C9.12498 35.688 9.11298 35.557 9.08798 35.433C9.04998 35.243 8.95998 35.052 8.84198 34.908C8.26298 34.205 8.03298 33.249 8.22498 32.351C8.29998 31.998 8.25198 31.595 8.09798 31.298C8.04766 31.2022 7.97767 31.1167 7.90795 31.0315L7.90098 31.023C7.82798 30.941 7.74298 30.858 7.63798 30.771L7.41798 30.589C7.13898 30.416 6.80898 30.294 6.44698 30.243C6.38298 30.235 6.28398 30.227 6.18198 30.224C6.01298 30.22 5.81198 30.237 5.62698 30.302C5.60498 30.31 5.58298 30.318 5.56098 30.328C5.46798 30.369 5.37998 30.419 5.30798 30.493L4.40198 31.233C4.33098 31.267 4.24898 31.321 4.15098 31.399L4.08498 31.452C3.82598 31.689 3.63098 32.032 3.56098 32.41C3.50898 32.694 3.52698 33.013 3.61398 33.308C3.88298 34.214 3.71298 35.217 3.14598 36.058C2.47898 37.044 2.33398 38.462 2.79198 39.506C2.84098 39.618 2.90598 39.728 2.97598 39.824C3.56098 40.609 3.76898 41.649 3.53198 42.604C3.50398 42.712 3.48698 42.822 3.47698 42.929C3.42237 43.5197 3.5639 44.1902 3.68924 44.784ZM7.67798 58H3.37198L2.70598 54H4.52498H8.34398L7.67798 58ZM6.52498 47.93V52V52.001H9.51998H10.706H32.522V31.001H10.118C10.1215 31.0135 10.1227 31.0265 10.124 31.0395C10.1252 31.0525 10.1265 31.0655 10.13 31.078C10.189 31.303 10.224 31.534 10.239 31.769C10.244 31.838 10.247 31.905 10.248 31.974C10.251 32.241 10.235 32.508 10.179 32.77C10.116 33.063 10.198 33.41 10.383 33.635C10.714 34.035 10.944 34.521 11.048 35.04C11.226 35.926 11.092 36.909 10.64 38.049C10.459 38.507 10.247 38.908 10.021 39.279C9.99755 39.3179 9.97439 39.3573 9.95125 39.3966C9.88446 39.5103 9.81775 39.6237 9.74498 39.724C9.50798 40.05 9.49198 40.579 9.70498 41.071C9.91498 41.557 10.037 42.098 10.068 42.644C10.084 42.917 10.076 43.192 10.046 43.462C10.016 43.732 9.96198 43.997 9.88498 44.252C9.81898 44.468 9.73598 44.678 9.64198 44.884C9.61721 44.9388 9.58963 44.9924 9.56219 45.0458L9.56217 45.0459L9.56215 45.0459L9.53498 45.099C9.46598 45.234 9.39198 45.368 9.31098 45.498L9.29065 45.5306C9.25258 45.5917 9.21458 45.6527 9.17298 45.713C9.06498 45.871 8.94598 46.025 8.81998 46.175C8.80748 46.1895 8.79598 46.2045 8.78448 46.2195L8.78443 46.2196C8.77294 46.2345 8.76146 46.2495 8.74898 46.264C8.58398 46.452 8.40398 46.631 8.21198 46.803L8.20639 46.8083L8.19998 46.815C8.19623 46.819 8.19248 46.823 8.18798 46.827L8.18598 46.825C7.74998 47.212 7.25098 47.559 6.69098 47.848C6.63598 47.876 6.58098 47.904 6.52498 47.93ZM38.525 58V31H52.525V58H38.525ZM54.525 58H56.525V25.247C55.951 25.71 55.315 26.083 54.638 26.369C54.6365 26.3695 54.6352 26.37 54.634 26.3705C54.6327 26.371 54.6315 26.3715 54.63 26.372C54.409 26.465 54.183 26.547 53.953 26.62C53.927 26.6287 53.901 26.6365 53.8749 26.6442C53.862 26.6481 53.849 26.652 53.836 26.656C53.641 26.714 53.443 26.765 53.242 26.809C53.222 26.8133 53.2021 26.8178 53.1823 26.8222C53.1425 26.8311 53.1027 26.84 53.062 26.848C52.873 26.885 52.682 26.913 52.49 26.936C52.4649 26.939 52.4401 26.9425 52.4152 26.946C52.3745 26.9516 52.3339 26.9573 52.293 26.961C52.039 26.985 51.784 27 51.525 27C51.188 27 50.857 26.972 50.531 26.931C50.4552 26.9213 50.3801 26.9091 50.3051 26.8968C50.287 26.8939 50.269 26.8909 50.251 26.888C50.004 26.848 49.762 26.797 49.523 26.735C49.4906 26.7264 49.4582 26.7184 49.4258 26.7105C49.3753 26.698 49.325 26.6856 49.275 26.671C48.968 26.581 48.667 26.476 48.377 26.351C48.353 26.3406 48.3296 26.3288 48.3061 26.3169C48.2866 26.307 48.267 26.2971 48.247 26.288C47.999 26.176 47.759 26.051 47.526 25.916C47.4562 25.8755 47.3887 25.8336 47.3209 25.7914C47.3099 25.7846 47.299 25.7778 47.288 25.771C47.076 25.638 46.872 25.496 46.674 25.344C46.6522 25.3274 46.63 25.3112 46.6077 25.295C46.5737 25.2703 46.5396 25.2456 46.507 25.219C46.264 25.023 46.033 24.813 45.815 24.59C45.7838 24.5588 45.755 24.5261 45.7261 24.4933C45.7086 24.4735 45.6911 24.4536 45.673 24.434C45.504 24.253 45.344 24.064 45.192 23.867C45.135 23.793 45.079 23.719 45.025 23.643C44.869 23.424 44.722 23.198 44.588 22.964C44.5785 22.9475 44.5677 22.9317 44.557 22.916C44.5462 22.9002 44.5355 22.8845 44.526 22.868C44.5165 22.8845 44.5057 22.9003 44.495 22.916C44.4842 22.9318 44.4735 22.9475 44.464 22.964C44.33 23.198 44.184 23.424 44.027 23.643C43.973 23.719 43.917 23.793 43.86 23.867C43.708 24.063 43.548 24.252 43.379 24.434C43.3604 24.4541 43.3422 24.4746 43.3241 24.495C43.2955 24.5272 43.267 24.5594 43.237 24.59C43.019 24.813 42.788 25.023 42.545 25.219C42.5123 25.2456 42.4783 25.2703 42.4443 25.295C42.422 25.3112 42.3997 25.3274 42.378 25.344C42.18 25.496 41.976 25.638 41.764 25.771C41.685 25.821 41.607 25.869 41.526 25.916C41.292 26.052 41.052 26.176 40.805 26.288C40.7856 26.2968 40.7668 26.3064 40.7481 26.3159C40.7241 26.3281 40.7002 26.3404 40.675 26.351C40.384 26.476 40.084 26.581 39.777 26.671C39.7176 26.6884 39.6577 26.7031 39.5976 26.7179C39.5748 26.7236 39.5519 26.7292 39.529 26.735C39.29 26.797 39.048 26.848 38.801 26.888C38.783 26.8909 38.7649 26.8938 38.7469 26.8968C38.6719 26.909 38.5968 26.9213 38.521 26.931C38.194 26.972 37.862 27 37.525 27C37.188 27 36.857 26.972 36.531 26.931C36.4552 26.9213 36.3801 26.909 36.305 26.8968C36.287 26.8939 36.269 26.8909 36.251 26.888C36.004 26.848 35.762 26.797 35.523 26.735C35.4906 26.7264 35.4582 26.7184 35.4258 26.7105C35.3753 26.698 35.325 26.6856 35.275 26.671C34.968 26.581 34.667 26.476 34.377 26.351C34.353 26.3406 34.3296 26.3288 34.3061 26.3169C34.2866 26.307 34.267 26.2971 34.247 26.288C33.999 26.176 33.759 26.051 33.526 25.916C33.4562 25.8755 33.3887 25.8336 33.3209 25.7914C33.3099 25.7846 33.299 25.7778 33.288 25.771C33.076 25.638 32.872 25.496 32.674 25.344C32.6522 25.3274 32.63 25.3112 32.6077 25.295C32.5737 25.2703 32.5396 25.2456 32.507 25.219C32.264 25.023 32.033 24.813 31.815 24.59C31.7838 24.5588 31.755 24.5261 31.7261 24.4933C31.7086 24.4735 31.6911 24.4536 31.673 24.434C31.504 24.253 31.344 24.064 31.192 23.867C31.135 23.793 31.079 23.719 31.025 23.643C30.869 23.424 30.722 23.198 30.588 22.964C30.5785 22.9475 30.5677 22.9317 30.557 22.916C30.5462 22.9002 30.5355 22.8845 30.526 22.868C30.5165 22.8845 30.5057 22.9003 30.495 22.916C30.4842 22.9318 30.4735 22.9475 30.464 22.964C30.33 23.198 30.184 23.424 30.027 23.643C29.973 23.719 29.917 23.793 29.86 23.867C29.708 24.063 29.548 24.252 29.379 24.434C29.3604 24.4541 29.3422 24.4746 29.3241 24.495C29.2955 24.5272 29.267 24.5594 29.237 24.59C29.019 24.813 28.788 25.023 28.545 25.219C28.5123 25.2456 28.4783 25.2703 28.4443 25.295C28.422 25.3112 28.3997 25.3274 28.378 25.344C28.18 25.496 27.976 25.638 27.764 25.771C27.685 25.821 27.607 25.869 27.526 25.916C27.292 26.052 27.052 26.176 26.805 26.288C26.7856 26.2968 26.7668 26.3064 26.7481 26.316C26.7241 26.3281 26.7002 26.3404 26.675 26.351C26.384 26.476 26.084 26.581 25.777 26.671C25.7176 26.6884 25.6577 26.7031 25.5977 26.7179C25.5748 26.7236 25.5519 26.7292 25.529 26.735C25.29 26.797 25.048 26.848 24.801 26.888C24.7829 26.8909 24.7649 26.8939 24.7469 26.8968C24.6719 26.9091 24.5968 26.9213 24.521 26.931C24.194 26.972 23.862 27 23.525 27C23.188 27 22.857 26.972 22.531 26.931C22.4552 26.9213 22.3801 26.9091 22.305 26.8968C22.287 26.8939 22.269 26.8909 22.251 26.888C22.004 26.848 21.762 26.797 21.523 26.735C21.4906 26.7264 21.4582 26.7184 21.4258 26.7105C21.3753 26.698 21.325 26.6856 21.275 26.671C20.968 26.581 20.667 26.476 20.377 26.351C20.353 26.3406 20.3296 26.3288 20.3061 26.3169C20.2866 26.307 20.267 26.2971 20.247 26.288C19.999 26.176 19.759 26.051 19.526 25.916C19.4562 25.8755 19.3886 25.8335 19.3208 25.7914C19.3098 25.7846 19.2989 25.7778 19.288 25.771C19.076 25.638 18.872 25.496 18.674 25.344C18.6522 25.3274 18.63 25.3112 18.6077 25.295C18.5737 25.2703 18.5396 25.2456 18.507 25.219C18.264 25.023 18.033 24.813 17.815 24.59C17.7838 24.5588 17.755 24.5261 17.7261 24.4933C17.7086 24.4735 17.6911 24.4536 17.673 24.434C17.504 24.253 17.344 24.064 17.192 23.867C17.135 23.793 17.079 23.719 17.025 23.643C16.869 23.424 16.722 23.198 16.588 22.964C16.5785 22.9475 16.5677 22.9318 16.557 22.916C16.5462 22.9002 16.5355 22.8845 16.526 22.868C16.5165 22.8845 16.5057 22.9002 16.495 22.916C16.4842 22.9318 16.4735 22.9475 16.464 22.964C16.33 23.198 16.184 23.424 16.027 23.643C15.973 23.719 15.917 23.793 15.86 23.867C15.708 24.063 15.548 24.252 15.379 24.434C15.3604 24.4541 15.3422 24.4746 15.3241 24.495C15.2955 24.5272 15.267 24.5594 15.237 24.59C15.019 24.813 14.788 25.023 14.545 25.219C14.5123 25.2456 14.4783 25.2703 14.4443 25.295C14.422 25.3112 14.3997 25.3274 14.378 25.344C14.18 25.496 13.976 25.638 13.764 25.771C13.685 25.821 13.607 25.869 13.526 25.916C13.292 26.052 13.052 26.176 12.805 26.288C12.7856 26.2968 12.7668 26.3064 12.7481 26.316C12.7241 26.3281 12.7002 26.3404 12.675 26.351C12.384 26.476 12.084 26.581 11.777 26.671C11.7176 26.6884 11.6577 26.7031 11.5977 26.7179C11.5748 26.7236 11.5519 26.7292 11.529 26.735C11.29 26.797 11.048 26.848 10.801 26.888C10.7829 26.8909 10.7649 26.8939 10.7469 26.8968C10.6719 26.9091 10.5968 26.9213 10.521 26.931C10.194 26.972 9.86298 27 9.52498 27C9.26698 27 9.01098 26.985 8.75698 26.961C8.71601 26.9573 8.67542 26.9516 8.63475 26.946C8.60989 26.9425 8.58501 26.939 8.55998 26.936C8.36698 26.913 8.17598 26.884 7.98798 26.848C7.94796 26.84 7.90795 26.8311 7.86794 26.8222C7.84795 26.8178 7.82796 26.8133 7.80798 26.809C7.60698 26.765 7.40898 26.715 7.21398 26.656L7.09698 26.62C6.86698 26.548 6.64098 26.465 6.41998 26.372C6.41698 26.371 6.41498 26.37 6.41198 26.369C5.73498 26.083 5.09898 25.71 4.52498 25.247V28.592C4.69698 28.498 4.88798 28.426 5.08698 28.366C5.11513 28.3581 5.14392 28.3518 5.17281 28.3455C5.19523 28.3406 5.2177 28.3357 5.23998 28.33C5.41298 28.287 5.59398 28.258 5.78198 28.242C5.80036 28.2406 5.81867 28.239 5.83696 28.2374C5.88234 28.2334 5.92765 28.2294 5.97398 28.228C6.21798 28.219 6.46798 28.225 6.72898 28.262C7.43798 28.363 8.08798 28.623 8.63598 29H34.526V54H10.373L9.70598 58H36.525V29H54.525V58Z" fill="#9D9D9D"/>
<path d="M49.525 43C48.972 43 48.525 43.447 48.525 44V47C48.525 47.553 48.972 48 49.525 48C50.078 48 50.525 47.553 50.525 47V44C50.525 43.447 50.078 43 49.525 43Z" fill="#20D994"/>
<path d="M18.525 39C18.781 39 19.037 38.902 19.232 38.707L23.232 34.707C23.623 34.316 23.623 33.684 23.232 33.293C22.841 32.902 22.209 32.902 21.818 33.293L17.818 37.293C17.427 37.684 17.427 38.316 17.818 38.707C18.014 38.902 18.27 39 18.525 39Z" fill="#20D994"/>
<path d="M18.525 44C18.781 44 19.037 43.902 19.232 43.707L21.232 41.707C21.623 41.316 21.623 40.684 21.232 40.293C20.841 39.902 20.209 39.902 19.818 40.293L17.818 42.293C17.427 42.684 17.427 43.316 17.818 43.707C18.014 43.902 18.27 44 18.525 44Z" fill="#20D994"/>
<path d="M21.815 38.29C21.634 38.479 21.525 38.74 21.525 39C21.525 39.26 21.634 39.52 21.815 39.7C22.004 39.889 22.254 40 22.525 40C22.785 40 23.045 39.89 23.235 39.71C23.415 39.52 23.525 39.26 23.525 39C23.525 38.74 23.415 38.479 23.235 38.29C22.865 37.92 22.186 37.92 21.815 38.29Z" fill="#20D994"/>
<path d="M23.818 37.707C24.014 37.902 24.27 38 24.525 38C24.78 38 25.037 37.902 25.232 37.707L28.232 34.707C28.623 34.316 28.623 33.684 28.232 33.293C27.841 32.902 27.209 32.902 26.818 33.293L23.818 36.293C23.428 36.684 23.428 37.316 23.818 37.707Z" fill="#20D994"/>
<path d="M18.525 49C18.781 49 19.037 48.902 19.232 48.707L28.232 39.707C28.623 39.316 28.623 38.684 28.232 38.293C27.841 37.902 27.209 37.902 26.818 38.293L17.818 47.293C17.427 47.684 17.427 48.316 17.818 48.707C18.014 48.902 18.27 49 18.525 49Z" fill="#20D994"/>
<path d="M28.815 37.71C29.004 37.89 29.265 38 29.525 38C29.785 38 30.045 37.89 30.235 37.71C30.415 37.52 30.525 37.26 30.525 37C30.525 36.74 30.415 36.479 30.235 36.29C29.865 35.92 29.185 35.92 28.815 36.29C28.634 36.479 28.525 36.74 28.525 37C28.525 37.26 28.635 37.52 28.815 37.71Z" fill="#20D994"/>
</svg>
