<svg width="60" height="56" viewBox="0 0 60 56" fill="none" xmlns="http://www.w3.org/2000/svg">
<path d="M14.887 15.958C14.887 17.187 15.366 18.343 16.237 19.213C16.432 19.408 16.688 19.506 16.944 19.506C17.2 19.506 17.456 19.408 17.651 19.213C18.042 18.822 18.042 18.19 17.651 17.799C17.159 17.307 16.887 16.653 16.887 15.958C16.887 15.263 17.158 14.608 17.651 14.116C18.521 13.246 19.001 12.09 19.001 10.86C19.001 9.63004 18.522 8.47404 17.651 7.60404C17.26 7.21304 16.627 7.21304 16.237 7.60404C15.846 7.99504 15.846 8.62704 16.237 9.01804C16.729 9.51104 17 10.166 17 10.861C17 11.556 16.729 12.211 16.236 12.703C15.366 13.573 14.887 14.729 14.887 15.958Z" fill="#20D994"/>
<path d="M36.887 15.958C36.887 17.187 37.366 18.343 38.237 19.213C38.432 19.408 38.688 19.506 38.944 19.506C39.2 19.506 39.456 19.408 39.651 19.213C40.042 18.822 40.042 18.19 39.651 17.799C39.159 17.307 38.887 16.653 38.887 15.958C38.887 15.263 39.158 14.608 39.651 14.116C40.521 13.246 41.001 12.09 41.001 10.86C41.001 9.63004 40.522 8.47404 39.651 7.60404C39.26 7.21304 38.627 7.21304 38.237 7.60404C37.846 7.99504 37.846 8.62704 38.237 9.01804C38.729 9.51104 39 10.166 39 10.861C39 11.556 38.729 12.211 38.236 12.703C37.366 13.573 36.887 14.729 36.887 15.958Z" fill="#20D994"/>
<path d="M25.459 12.0769C25.459 13.6399 26.068 15.1079 27.174 16.2139C27.369 16.4089 27.625 16.5069 27.881 16.5069C28.137 16.5069 28.393 16.4089 28.589 16.2139C28.979 15.8229 28.979 15.1909 28.589 14.7999C27.86 14.0709 27.46 13.1049 27.46 12.0769C27.46 11.0489 27.861 10.0819 28.589 9.35292C29.695 8.24792 30.304 6.77892 30.304 5.21592C30.304 3.65292 29.695 2.18492 28.589 1.07792C28.198 0.686918 27.566 0.686918 27.175 1.07792C26.784 1.46892 26.784 2.10092 27.175 2.49192C27.903 3.22092 28.304 4.18692 28.304 5.21592C28.304 6.24292 27.903 7.20992 27.175 7.93892C26.068 9.04492 25.459 10.5139 25.459 12.0769Z" fill="#20D994"/>
<path fill-rule="evenodd" clip-rule="evenodd" d="M46.947 39.7749C46.9561 39.7754 46.9642 39.7779 46.9723 39.7804C46.9812 39.7832 46.9901 39.7859 47 39.7859C54.411 39.7859 60 34.6269 60 27.7859C60 27.2329 59.552 26.7859 59 26.7859H49.956C49.984 26.1289 50 25.4629 50 24.7859C50 24.2329 49.552 23.7859 49 23.7859H22V22.7859C22 22.2329 21.552 21.7859 21 21.7859C20.448 21.7859 20 22.2329 20 22.7859V23.7859H7C6.448 23.7859 6 24.2329 6 24.7859C6 34.4919 8.943 42.1669 14.351 46.7859H1C0.448 46.7859 0 47.2329 0 47.7859C0 49.2819 6.98732 51.8787 7.23197 51.9696L7.23199 51.9697L7.23201 51.9697L7.238 51.9719C11.353 53.4509 18.296 55.2149 28 55.2149C46.583 55.2149 55.242 48.8559 55.602 48.5849C55.946 48.3259 56.085 47.8769 55.949 47.4689C55.813 47.0619 55.431 46.7859 55.001 46.7859H41.649C43.828 44.9249 45.6 42.5609 46.947 39.7749ZM57.953 28.7859C57.476 33.8109 53.407 37.4239 47.831 37.7539C48.855 35.0809 49.525 32.0749 49.823 28.7859H57.953ZM4.742 48.7849C8.597 50.6089 16.178 53.2139 28 53.2139C39.564 53.2139 47.191 50.6249 51.15 48.7849H38.562H17.439H4.742ZM17.72 46.7859C11.654 43.0049 8.228 35.5839 8.011 25.7859H20V27.7859H18C17.448 27.7859 17 28.2329 17 28.7859V36.2859C17 36.8389 17.448 37.2859 18 37.2859H24C24.552 37.2859 25 36.8389 25 36.2859V28.7859C25 28.2329 24.552 27.7859 24 27.7859H22V25.7859H47.989C47.772 35.5839 44.346 43.0049 38.28 46.7859H17.72ZM23 35.2859V29.7859H19V35.2859H23Z" fill="#9D9D9D"/>
</svg>
