<svg width="59" height="49" viewBox="0 0 59 49" fill="none" xmlns="http://www.w3.org/2000/svg">
<path fill-rule="evenodd" clip-rule="evenodd" d="M56.382 2.13805C57.109 2.29005 57.76 2.69405 58.246 3.29305C59.167 4.42605 59.253 6.07005 58.455 7.29205C57.85 8.21605 56.873 8.77605 55.774 8.82905C55.426 8.84605 54.777 8.95005 54.356 9.46205L50.875 13.6841C51.012 15.2761 50.322 16.6651 50.283 16.7411C50.283 16.7411 50.159 16.9291 50.156 16.9321C50.0709 17.0353 49.9918 17.1407 49.9125 17.2462L49.9123 17.2464L49.9122 17.2466L49.912 17.2468L49.9119 17.247L49.9117 17.2472L49.9115 17.2475L49.9113 17.2478L49.9111 17.248C49.8687 17.3044 49.8264 17.3609 49.783 17.4171C53.846 21.9901 57.876 27.1291 56.98 31.3931C56.344 34.4231 54.621 37.0161 51.878 39.1241C52.033 39.3661 52.174 39.6161 52.299 39.8791H55.071C55.797 39.8791 56.454 40.2791 56.786 40.9251C57.118 41.5711 57.062 42.3381 56.64 42.9291L54.379 46.0931C53.133 47.8381 51.109 48.8791 48.966 48.8791H8.034C5.891 48.8791 3.867 47.8381 2.621 46.0931L0.361 42.9291C-0.061 42.3381 -0.117 41.5711 0.215 40.9251C0.547 40.2791 1.204 39.8791 1.93 39.8791H3.702C4.081 39.0841 4.589 38.3751 5.213 37.7881C4.422 36.5091 4 35.0681 4 33.4721C4 32.6161 4.089 31.7531 4.265 30.9081C4.524 29.6631 4.497 28.2971 4.182 26.7331C4.062 26.1351 4 25.5201 4 24.9061C4 18.3001 7.884 14.1971 14.139 14.2001C14.655 14.2001 15.149 14.2921 15.633 14.4601C16.031 13.3111 16.226 12.2811 16.177 11.4291C16.125 10.5371 16.565 9.69505 17.326 9.23205C18.081 8.77305 19.025 8.77005 19.787 9.22005C22.978 11.1151 24.875 13.6741 25.273 16.6201C25.327 17.0171 25.346 17.4231 25.345 17.8321C25.68 17.5691 25.984 17.3001 26.239 17.0671C26.381 16.9381 26.509 16.8221 26.623 16.7241C32.972 11.2801 38.372 11.1501 41.941 12.1311C42.096 11.9841 42.239 11.8381 42.38 11.6911C42.577 11.4821 42.773 11.2721 42.993 11.0101C43.482 10.4181 44.12 9.99005 44.834 9.73105C45.156 9.61405 45.488 9.52205 45.978 9.46705C45.978 9.46705 46.211 9.51205 46.26 9.52105L49.563 5.51405C49.984 5.00205 49.963 4.34605 49.913 4.00005C49.756 2.91105 50.119 1.84605 50.911 1.07505C51.958 0.0580528 53.587 -0.174947 54.877 0.515053C55.556 0.878053 56.077 1.43905 56.382 2.13805ZM47.215 17.5481L47.573 17.0391C47.877 16.6011 48.195 16.1681 48.538 15.7471C48.66 15.4671 49.026 14.5091 48.843 13.5931L48.841 13.5841C48.819 13.4751 48.787 13.3711 48.749 13.2701L48.7446 13.2579L48.7445 13.2579C48.739 13.2426 48.7333 13.227 48.727 13.2121C48.693 13.1281 48.651 13.0481 48.606 12.9701C48.531 12.8401 48.44 12.7171 48.334 12.6011C48.278 12.5401 48.216 12.4831 48.151 12.4271C48.054 12.3421 47.946 12.2631 47.831 12.1881C47.713 12.1121 47.584 12.0401 47.444 11.9731C47.3833 11.9427 47.3182 11.9154 47.2524 11.8878L47.2523 11.8878L47.222 11.8751C46.999 11.7831 46.754 11.7001 46.484 11.6281C46.4345 11.6148 46.3861 11.6011 46.3377 11.5875L46.3377 11.5875C46.2071 11.5506 46.0769 11.5138 45.928 11.4861C45.375 11.5791 44.885 11.8571 44.535 12.2811C44.5075 12.3144 44.4781 12.3458 44.4486 12.3771C44.4233 12.404 44.398 12.4309 44.374 12.4591C44.175 12.6921 43.973 12.9241 43.749 13.1531C43.345 13.5741 42.919 13.9691 42.472 14.3411L42.433 14.3761L42.429 14.3751C40.394 16.0531 37.93 17.2291 35.158 17.8081C33.438 18.1681 31.941 19.0791 30.828 20.4431C28.304 23.5361 28.655 28.2261 31.609 30.9011C33.172 32.3161 35.187 33.0051 37.284 32.8591C39.381 32.7061 41.273 31.7281 42.61 30.1071C43.604 28.9001 44.196 27.4421 44.323 25.8901C44.56 22.9791 45.564 20.1421 47.23 17.5651L47.215 17.5481ZM18.365 10.9381C18.439 10.8931 18.591 10.8341 18.766 10.9371C20.612 12.0341 22.895 13.9551 23.29 16.8851C23.394 17.6551 23.362 18.4621 23.207 19.3011L23.171 19.4771C22.812 21.2171 21.907 23.1021 20.472 25.1131L20.435 25.1651C19.888 25.9271 19.262 26.7071 18.564 27.5041C18.494 27.5841 18.422 27.6651 18.35 27.7461C18.009 28.1291 17.656 28.5141 17.28 28.9041C16.639 29.5691 16.011 30.0901 15.412 30.4591C14.44 31.0571 13.545 31.2501 12.789 31.0221C12.7797 31.0193 12.7701 31.0178 12.7604 31.0163H12.7603L12.7603 31.0163C12.749 31.0145 12.7377 31.0128 12.727 31.0091C11.813 30.6971 11.133 29.6861 10.995 28.4311C10.9924 28.4092 10.9933 28.3865 10.9942 28.3639C10.9951 28.343 10.9959 28.3222 10.994 28.3021C10.939 27.5691 11.092 26.8111 11.383 26.0461C11.931 24.6061 12.94 23.1441 13.876 21.7981C13.9202 21.734 13.9619 21.6722 14.0033 21.6108L14.0038 21.6101L14.0038 21.61L14.0039 21.6099L14.0039 21.6099L14.004 21.6099L14.004 21.6099L14.004 21.6098L14.004 21.6098L14.004 21.6098C14.0458 21.5478 14.0874 21.4862 14.131 21.4231L14.2139 21.3034L14.214 21.3033C14.4294 20.9924 14.6439 20.6828 14.838 20.3851C14.8631 20.3465 14.8864 20.3086 14.9097 20.2707L14.9097 20.2706C14.9281 20.2406 14.9466 20.2105 14.966 20.1801C15.134 19.9181 15.304 19.6521 15.474 19.3691C15.615 19.1351 15.745 18.9041 15.875 18.6731C15.9013 18.6269 15.9276 18.5817 15.9538 18.5366L15.954 18.5363C15.9965 18.4631 16.039 18.3901 16.081 18.3141C16.475 17.5951 16.819 16.8941 17.107 16.2181L17.439 15.4381L17.41 15.4201C17.922 14.0331 18.249 12.6191 18.174 11.3131C18.16 11.0951 18.288 10.9851 18.365 10.9381ZM7.768 38.409C7.561 38.514 7.361 38.6361 7.167 38.771C6.726 39.076 6.332 39.4471 6.006 39.8781H13.991L13.9878 39.8725L13.9848 39.8674L13.9832 39.865L13.981 39.8621C13.972 39.8506 13.9626 39.8399 13.9531 39.8292L13.953 39.829C13.9435 39.8183 13.934 39.8075 13.925 39.7961C13.801 39.6371 13.666 39.4871 13.524 39.3451C13.4751 39.2951 13.4231 39.2482 13.3712 39.2012L13.3712 39.2012L13.3711 39.2012L13.3711 39.2011L13.371 39.2011L13.371 39.201C13.247 39.0881 13.117 38.9811 12.983 38.8801C12.9636 38.8658 12.9444 38.8511 12.9251 38.8364C12.8917 38.811 12.8582 38.7855 12.824 38.7621C12.637 38.6331 12.443 38.514 12.239 38.4111C12.231 38.407 12.223 38.4038 12.215 38.4005L12.2045 38.3962L12.2 38.3943L12.191 38.3901C12.001 38.298 11.805 38.2191 11.604 38.1501C11.5573 38.1338 11.5096 38.12 11.4619 38.1063L11.4618 38.1062L11.4617 38.1062L11.4614 38.1061C11.4419 38.1005 11.4224 38.0948 11.403 38.0891C11.241 38.042 11.076 38.0021 10.909 37.9711L10.8697 37.9635L10.8696 37.9634C10.8147 37.9528 10.7597 37.9421 10.704 37.9341C10.472 37.9011 10.238 37.8791 10 37.8791C9.767 37.8791 9.537 37.9001 9.31 37.931C9.25211 37.9387 9.19539 37.9498 9.13894 37.9608L9.086 37.9711C8.932 38 8.779 38.0361 8.629 38.0791L8.58483 38.092L8.58474 38.092C8.52153 38.1105 8.45844 38.129 8.396 38.1501C8.216 38.2121 8.039 38.2831 7.866 38.3661C7.85008 38.374 7.83366 38.3807 7.81725 38.3874L7.81713 38.3875L7.817 38.3876C7.8005 38.3943 7.784 38.4011 7.768 38.409ZM18.076 39.7971C18.201 39.6381 18.335 39.4881 18.477 39.3461C18.5103 39.3134 18.5446 39.2816 18.5788 39.2498L18.5792 39.2494C18.5962 39.2337 18.6131 39.2179 18.63 39.2021C18.754 39.0881 18.883 38.9811 19.018 38.8811L19.0596 38.8493L19.0597 38.8493C19.0982 38.8197 19.1365 38.7903 19.177 38.7631C19.364 38.6341 19.558 38.5141 19.762 38.4121C19.77 38.4081 19.778 38.4048 19.786 38.4015C19.794 38.3983 19.802 38.3951 19.81 38.3911C19.999 38.2981 20.196 38.2191 20.397 38.1511C20.4437 38.1348 20.4915 38.121 20.5392 38.1072L20.5393 38.1072C20.5589 38.1015 20.5785 38.0959 20.598 38.0901C20.76 38.0421 20.924 38.0031 21.092 37.9721L21.1313 37.9645L21.1314 37.9644C21.1863 37.9538 21.2413 37.9431 21.297 37.9351C21.528 37.9021 21.763 37.8801 22.001 37.8801C22.239 37.8801 22.473 37.9021 22.705 37.9351C22.7607 37.9431 22.8157 37.9538 22.8706 37.9645L22.8707 37.9645L22.91 37.9721C23.077 38.0031 23.242 38.0431 23.404 38.0901L23.4246 38.0961L23.4627 38.1072C23.5104 38.121 23.5582 38.1347 23.605 38.1511C23.806 38.2201 24.002 38.2991 24.192 38.3911C24.2 38.3951 24.208 38.3983 24.216 38.4016C24.224 38.4048 24.232 38.4081 24.24 38.4121C24.444 38.5151 24.638 38.6341 24.825 38.7631C24.8592 38.7865 24.8927 38.812 24.9261 38.8374C24.9453 38.8521 24.9646 38.8668 24.984 38.8811C25.118 38.9821 25.248 39.0891 25.372 39.2021C25.424 39.2491 25.476 39.2961 25.525 39.3461C25.667 39.4881 25.802 39.6381 25.926 39.7971C25.9308 39.8032 25.9358 39.8092 25.9409 39.8151L25.954 39.83C25.9601 39.837 25.9662 39.8439 25.9722 39.851L25.982 39.8631C25.9849 39.8667 25.9873 39.8709 25.9896 39.8749L25.992 39.8791H18.012C18.0149 39.8754 18.0173 39.8712 18.0196 39.8672L18.022 39.8631C18.0314 39.8495 18.0423 39.837 18.0532 39.8243C18.0609 39.8154 18.0686 39.8065 18.076 39.7971ZM30.477 39.3461C30.335 39.4881 30.201 39.6381 30.076 39.7971C30.072 39.8022 30.0679 39.8071 30.0638 39.812L30.0532 39.8243C30.0423 39.837 30.0314 39.8495 30.022 39.8631C30.019 39.8681 30.016 39.8741 30.012 39.8791H37.992L37.9896 39.8749C37.9873 39.8709 37.9849 39.8667 37.982 39.8631C37.973 39.8515 37.9635 39.8408 37.954 39.83C37.9445 39.8193 37.935 39.8085 37.926 39.7971C37.802 39.6381 37.667 39.4881 37.525 39.3461C37.476 39.2961 37.424 39.2491 37.372 39.2021C37.248 39.0891 37.118 38.9821 36.984 38.8811L36.9575 38.8613L36.9261 38.8374L36.926 38.8374C36.8926 38.8119 36.8592 38.7865 36.825 38.7631C36.638 38.6341 36.444 38.5151 36.24 38.4121C36.232 38.4081 36.224 38.4048 36.216 38.4015L36.2024 38.3959C36.1989 38.3944 36.1955 38.3928 36.192 38.3911C36.002 38.2991 35.806 38.2201 35.605 38.1511C35.5582 38.1348 35.5105 38.121 35.4628 38.1072L35.4626 38.1072L35.4625 38.1071C35.443 38.1015 35.4234 38.0959 35.404 38.0901C35.242 38.0431 35.077 38.0031 34.91 37.9721L34.8707 37.9645L34.8706 37.9645L34.8705 37.9644L34.8703 37.9644L34.8702 37.9644C34.8154 37.9538 34.7605 37.9431 34.705 37.9351C34.473 37.9021 34.239 37.8801 34.001 37.8801C33.763 37.8801 33.528 37.9021 33.297 37.9351C33.2415 37.9431 33.1866 37.9538 33.1318 37.9644L33.1317 37.9644L33.1315 37.9644L33.1314 37.9645L33.1313 37.9645L33.092 37.9721C32.924 38.0031 32.76 38.0421 32.598 38.0901L32.5766 38.0964L32.5398 38.107L32.5393 38.1072C32.4916 38.121 32.4438 38.1347 32.397 38.1511C32.196 38.2191 31.999 38.2981 31.81 38.3911C31.8059 38.3931 31.8018 38.395 31.7977 38.3967L31.786 38.4015C31.778 38.4048 31.77 38.4081 31.762 38.4121C31.558 38.5141 31.364 38.6341 31.177 38.7631C31.1365 38.7903 31.0982 38.8197 31.0597 38.8493L31.0596 38.8493L31.018 38.8811C30.883 38.9811 30.754 39.0881 30.63 39.2021C30.613 39.218 30.5959 39.2339 30.5788 39.2498C30.5446 39.2816 30.5103 39.3134 30.477 39.3461ZM42.076 39.7971C42.201 39.6381 42.335 39.4881 42.477 39.3461C42.5102 39.3135 42.5444 39.2818 42.5785 39.2501L42.5787 39.2499C42.5959 39.234 42.613 39.2181 42.63 39.2021C42.754 39.0881 42.883 38.9811 43.018 38.8811L43.0597 38.8493C43.0982 38.8197 43.1365 38.7903 43.177 38.7631C43.364 38.6341 43.558 38.5141 43.762 38.4121C43.77 38.4081 43.778 38.4048 43.786 38.4016C43.794 38.3983 43.802 38.3951 43.81 38.3911C43.999 38.2981 44.196 38.2191 44.397 38.1511C44.4437 38.1348 44.4915 38.121 44.5392 38.1072L44.5393 38.1072L44.5398 38.107L44.577 38.0963L44.598 38.0901C44.76 38.0421 44.924 38.0031 45.092 37.9721L45.1313 37.9645C45.1862 37.9538 45.2413 37.9431 45.297 37.9351C45.528 37.9021 45.763 37.8801 46.001 37.8801C46.187 37.8801 46.371 37.8931 46.554 37.9131C46.6272 37.9212 46.6988 37.9342 46.7707 37.9474C46.7961 37.952 46.8215 37.9566 46.847 37.9611L46.884 37.9672C46.9496 37.978 47.015 37.9887 47.079 38.0031C47.212 38.0331 47.343 38.0711 47.473 38.1121C47.506 38.1221 47.54 38.1321 47.573 38.1431C47.73 38.1961 47.885 38.2571 48.036 38.3251C48.672 38.6151 49.25 39.0401 49.727 39.5801L49.992 39.8801H42.01C42.014 39.8751 42.017 39.8691 42.02 39.8641C42.0298 39.851 42.0401 39.8392 42.0504 39.8274L42.0505 39.8274C42.0591 39.8174 42.0678 39.8076 42.076 39.7971ZM52.751 44.9311L54.931 41.8791H53.063H41.063H41.052H38.942H38.931H29.064H29.053H26.943H26.932H17.065H17.054H14.944H14.933H2.933H2.068L4.248 44.9311C5.12 46.1501 6.535 46.8791 8.034 46.8791H48.965C50.464 46.8791 51.879 46.1511 52.751 44.9311ZM55.021 30.9831C54.479 33.5601 52.986 35.7881 50.579 37.6121C50.5504 37.5873 50.5205 37.5642 50.4905 37.5411L50.4903 37.5409C50.467 37.5229 50.4437 37.5048 50.421 37.4861C50.204 37.3081 49.979 37.1421 49.742 36.9911C49.622 36.9141 49.5 36.8411 49.376 36.7711L49.3208 36.7403C49.2136 36.6805 49.107 36.621 48.996 36.5681C48.768 36.4581 48.532 36.3651 48.294 36.2801C48.197 36.2461 48.099 36.2131 48 36.1831C47.725 36.0991 47.445 36.0311 47.161 35.9821C47.1231 35.9759 47.0849 35.971 47.0466 35.966L47.0457 35.9658C47.0215 35.9627 46.9972 35.9595 46.973 35.9561C46.652 35.9101 46.327 35.8791 45.999 35.8791C45.655 35.8791 45.318 35.9101 44.985 35.9591C44.9154 35.9694 44.8471 35.9842 44.7787 35.9991C44.7409 36.0074 44.7031 36.0156 44.665 36.0231C44.442 36.0671 44.222 36.1161 44.006 36.1811C43.9017 36.2121 43.8004 36.2483 43.6989 36.2846L43.65 36.3021C43.453 36.3731 43.26 36.4511 43.071 36.5391C42.956 36.5921 42.842 36.6471 42.729 36.7061C42.54 36.8071 42.359 36.9181 42.18 37.0361C42.1501 37.0556 42.1201 37.0748 42.0901 37.0939L42.0901 37.0939C42.0219 37.1375 41.954 37.1808 41.888 37.2281C41.676 37.3831 41.475 37.5521 41.281 37.7301C41.2593 37.75 41.2365 37.7686 41.2138 37.7872C41.1853 37.8105 41.1567 37.8339 41.13 37.8601C40.896 38.0881 40.679 38.3331 40.477 38.5931C40.4376 38.6437 40.4026 38.6966 40.3674 38.7497L40.3674 38.7498L40.3673 38.7499C40.3462 38.7817 40.3251 38.8136 40.303 38.8451C40.278 38.8802 40.2528 38.9151 40.2276 38.95C40.1486 39.0591 40.0697 39.1681 40 39.284C39.9313 39.1698 39.8537 39.0628 39.7759 38.9556C39.7495 38.9192 39.7231 38.8828 39.697 38.8461C39.6843 38.828 39.6719 38.8098 39.6596 38.7914C39.6507 38.7781 39.6418 38.7648 39.6329 38.7514C39.5973 38.6977 39.5616 38.644 39.522 38.5931C39.32 38.3331 39.103 38.0881 38.869 37.8611C38.843 37.8361 38.8153 37.8133 38.7875 37.7904C38.764 37.7711 38.7405 37.7517 38.718 37.7311C38.524 37.5531 38.324 37.3841 38.111 37.2291C38.0463 37.1816 37.9789 37.1389 37.9111 37.096C37.8804 37.0765 37.8496 37.057 37.819 37.0371C37.64 36.9201 37.459 36.8081 37.27 36.7071C37.158 36.6471 37.044 36.5931 36.928 36.5391C36.739 36.4511 36.546 36.3731 36.349 36.3021L36.3002 36.2846C36.1986 36.2483 36.0973 36.2121 35.993 36.1811C35.777 36.1161 35.557 36.0671 35.334 36.0231C35.296 36.0156 35.2583 36.0074 35.2206 35.9992L35.2203 35.9991C35.1519 35.9842 35.0836 35.9694 35.014 35.9591C34.681 35.9101 34.343 35.8791 34 35.8791C33.657 35.8791 33.319 35.9101 32.986 35.9591C32.9164 35.9694 32.8481 35.9842 32.7797 35.9991C32.7573 36.004 32.7349 36.0089 32.7125 36.0136C32.697 36.0168 32.6815 36.02 32.666 36.0231C32.443 36.0671 32.223 36.1161 32.007 36.1811C31.9027 36.2121 31.8014 36.2483 31.6999 36.2846L31.651 36.3021C31.454 36.3731 31.261 36.4511 31.072 36.5391C30.957 36.5921 30.843 36.6471 30.73 36.7061C30.541 36.8071 30.36 36.9181 30.181 37.0361C30.1636 37.0474 30.1462 37.0586 30.1288 37.0698C30.1162 37.0778 30.1037 37.0859 30.0911 37.0939L30.0911 37.0939C30.0229 37.1375 29.955 37.1808 29.889 37.2281C29.677 37.3831 29.476 37.5521 29.282 37.7301C29.2676 37.7433 29.2527 37.756 29.2377 37.7684C29.2301 37.7747 29.2224 37.781 29.2148 37.7872C29.1863 37.8105 29.1577 37.8339 29.131 37.8601C28.897 38.0881 28.68 38.3331 28.478 38.5931C28.4386 38.6437 28.4036 38.6966 28.3684 38.7497L28.3684 38.7498C28.3473 38.7816 28.3261 38.8136 28.304 38.8451C28.2813 38.8767 28.2584 38.9082 28.2355 38.9396L28.2354 38.9397C28.1535 39.0523 28.0719 39.1645 28 39.284C27.9313 39.1698 27.8537 39.0628 27.7759 38.9555C27.7495 38.9192 27.7231 38.8828 27.697 38.8461C27.6751 38.8149 27.654 38.7831 27.6329 38.7514C27.5973 38.6977 27.5616 38.644 27.522 38.5931C27.32 38.3331 27.103 38.0881 26.869 37.8611C26.843 37.8361 26.8153 37.8133 26.7875 37.7904C26.764 37.7711 26.7405 37.7517 26.718 37.7311C26.524 37.5531 26.324 37.3841 26.111 37.2291C26.0464 37.1816 25.9789 37.1389 25.9111 37.096C25.8804 37.0765 25.8496 37.057 25.819 37.0371C25.64 36.9201 25.459 36.8081 25.27 36.7071C25.158 36.6471 25.044 36.5931 24.928 36.5391C24.739 36.4511 24.546 36.3731 24.349 36.3021L24.3001 36.2846C24.1986 36.2483 24.0973 36.2121 23.993 36.1811C23.777 36.1161 23.557 36.0671 23.334 36.0231C23.2959 36.0156 23.2581 36.0074 23.2203 35.9991L23.2203 35.9991C23.1519 35.9842 23.0836 35.9694 23.014 35.9591C22.681 35.9101 22.343 35.8791 22 35.8791C21.657 35.8791 21.319 35.9101 20.986 35.9591C20.9164 35.9694 20.8481 35.9842 20.7797 35.9991L20.7797 35.9991L20.7794 35.9992C20.7417 36.0074 20.704 36.0156 20.666 36.0231C20.443 36.0671 20.223 36.1161 20.007 36.1811C19.9028 36.212 19.8016 36.2482 19.7002 36.2845L19.6999 36.2846L19.651 36.3021C19.454 36.3731 19.261 36.4511 19.072 36.5391C18.957 36.5921 18.843 36.6471 18.73 36.7061C18.541 36.8071 18.36 36.9181 18.181 37.0361C18.1511 37.0556 18.1211 37.0748 18.0911 37.0939L18.0911 37.0939C18.0229 37.1375 17.955 37.1808 17.889 37.2281C17.677 37.3831 17.476 37.5521 17.282 37.7301C17.2603 37.75 17.2375 37.7686 17.2148 37.7872C17.1863 37.8105 17.1577 37.8339 17.131 37.8601C16.897 38.0881 16.68 38.3331 16.478 38.5931C16.4386 38.6437 16.4035 38.6967 16.3684 38.7498C16.3473 38.7816 16.3261 38.8136 16.304 38.8451C16.2813 38.8767 16.2584 38.9082 16.2355 38.9396L16.2354 38.9397C16.1535 39.0523 16.0719 39.1645 16 39.284C15.9313 39.1698 15.8537 39.0628 15.7759 38.9556L15.7758 38.9554C15.7494 38.9191 15.7231 38.8827 15.697 38.8461C15.6751 38.8149 15.6541 38.7832 15.633 38.7515L15.6329 38.7514C15.5973 38.6977 15.5616 38.644 15.522 38.5931C15.32 38.3331 15.103 38.0881 14.869 37.8611C14.843 37.8361 14.8153 37.8133 14.7875 37.7904C14.764 37.7711 14.7405 37.7517 14.718 37.7311C14.524 37.5531 14.324 37.3841 14.111 37.2291C14.0464 37.1816 13.9789 37.1389 13.9111 37.096L13.9111 37.096C13.8804 37.0765 13.8496 37.057 13.819 37.0371C13.64 36.9201 13.459 36.8081 13.27 36.7071C13.158 36.6471 13.044 36.5931 12.928 36.5391C12.739 36.4511 12.546 36.3731 12.349 36.3021L12.3001 36.2846L12.3 36.2846C12.1985 36.2483 12.0972 36.2121 11.993 36.1811C11.777 36.1161 11.557 36.0671 11.334 36.0231C11.296 36.0156 11.2583 36.0074 11.2206 35.9992L11.2203 35.9991L11.2203 35.9991C11.1519 35.9842 11.0836 35.9694 11.014 35.9591C10.681 35.9101 10.343 35.8791 10 35.8791C9.665 35.8791 9.334 35.9101 9.007 35.9571C8.94355 35.9664 8.88062 35.9784 8.81783 35.9903L8.81764 35.9904C8.79341 35.995 8.76921 35.9996 8.745 36.0041C8.497 36.0491 8.252 36.1081 8.011 36.1801L7.96251 36.1943C7.89767 36.2134 7.83284 36.2324 7.768 36.2541C7.482 36.3511 7.201 36.4631 6.929 36.5981C6.9185 36.6031 6.90775 36.6076 6.897 36.6121C6.88625 36.6166 6.8755 36.6211 6.865 36.6261C6.85899 36.6291 6.85274 36.6316 6.84648 36.6341C6.84024 36.6366 6.83399 36.6391 6.828 36.6421C6.272 35.7041 6 34.6591 6 33.4721C6 32.7521 6.075 32.0271 6.223 31.3161C6.538 29.8001 6.512 28.1721 6.142 26.3371C6.047 25.8681 6 25.3871 6 24.9061C6 22.2881 6.793 16.1971 14.138 16.1971C14.387 16.1971 14.626 16.2321 14.862 16.3011C14.836 16.3557 14.8087 16.4104 14.7812 16.4654L14.74 16.5481C14.582 16.8641 14.413 17.1841 14.232 17.5101C14.2082 17.5527 14.1846 17.5952 14.1611 17.6378L14.1609 17.6381C14.1094 17.7312 14.0579 17.8244 14.003 17.9191C13.742 18.3691 13.466 18.8261 13.162 19.2911C12.875 19.7311 12.558 20.1871 12.233 20.6541C11.016 22.4051 9.689 24.3271 9.186 26.3661C9.087 26.7651 9.012 27.1671 8.984 27.5751C8.96 27.9311 8.965 28.2901 9.005 28.6521C9.232 30.7051 10.411 32.3331 12.081 32.9011C12.245 32.9571 12.436 33.0071 12.648 33.0461C12.656 33.0476 12.664 33.0488 12.672 33.0501C12.68 33.0513 12.688 33.0526 12.696 33.0541C12.903 33.0891 13.13 33.1101 13.378 33.1121C13.3835 33.1121 13.3883 33.1128 13.393 33.1136C13.3977 33.1143 13.4025 33.1151 13.408 33.1151C13.4105 33.1151 13.4132 33.1149 13.4158 33.1147C13.4183 33.1145 13.4209 33.1143 13.4235 33.1141C13.4288 33.1136 13.434 33.1131 13.439 33.1131C13.59 33.1121 13.747 33.1041 13.912 33.0861C13.918 33.0856 13.9242 33.0846 13.9305 33.0836C13.9368 33.0826 13.943 33.0816 13.949 33.0811C14.099 33.0631 14.256 33.0361 14.418 33.0011L14.4201 33.0006C14.4594 32.9917 14.4987 32.9829 14.539 32.9741C14.709 32.9331 14.883 32.8851 15.064 32.8231L15.093 32.8141C15.283 32.7481 15.48 32.6651 15.681 32.5721C15.7124 32.558 15.7437 32.5423 15.7751 32.5265C15.7845 32.5217 15.794 32.5169 15.8035 32.5122C15.8097 32.5091 15.8158 32.5061 15.822 32.5031C15.989 32.4211 16.159 32.3291 16.333 32.2271C16.3436 32.2207 16.3543 32.2145 16.3649 32.2083C16.3735 32.2033 16.3822 32.1984 16.3908 32.1935C16.4165 32.1788 16.4423 32.1641 16.468 32.1481C16.681 32.0171 16.898 31.8721 17.12 31.7081C17.144 31.6904 17.1679 31.6714 17.1919 31.6524L17.192 31.6523C17.21 31.638 17.228 31.6238 17.246 31.6101C17.431 31.4691 17.62 31.3151 17.811 31.1491L17.8568 31.1092C17.9046 31.0677 17.9525 31.026 18.001 30.9821C18.236 30.7701 18.474 30.5451 18.717 30.2921C19.099 29.8951 19.459 29.5021 19.809 29.1111C19.902 29.0071 19.992 28.9041 20.082 28.8001C20.365 28.4771 20.636 28.1561 20.896 27.8371L20.9586 27.761C20.9974 27.7139 21.0364 27.6668 21.074 27.6201C21.389 27.2271 21.687 26.8371 21.967 26.4501C21.9863 26.4233 22.0047 26.3968 22.023 26.3704C22.0389 26.3476 22.0547 26.3248 22.071 26.3021C22.316 25.9591 22.547 25.6181 22.765 25.2801C22.7834 25.2513 22.8021 25.2225 22.8208 25.1937C22.8489 25.1505 22.877 25.1073 22.904 25.0641C23.386 24.2981 23.797 23.5461 24.136 22.8091C24.166 22.7441 24.194 22.6801 24.222 22.6151C24.367 22.2891 24.499 21.9651 24.616 21.6451C24.624 21.6231 24.6328 21.6005 24.6415 21.578C24.6503 21.5555 24.659 21.533 24.667 21.5111C24.797 21.1441 24.909 20.7801 25.001 20.4201L25.007 20.4001C26.1345 19.8662 26.9882 19.0875 27.5801 18.5476L27.584 18.5441L27.6345 18.498L27.6345 18.498C27.7386 18.403 27.8339 18.3161 27.921 18.2411C31.95 14.7871 36.041 13.2701 39.878 13.7611C38.364 14.7411 36.64 15.4561 34.746 15.8531C32.604 16.3001 30.662 17.4821 29.276 19.1811C26.09 23.0841 26.533 29.0081 30.265 32.3851C32.058 34.0091 34.324 34.8811 36.71 34.8811C36.948 34.8811 37.188 34.8731 37.428 34.8561C40.075 34.6631 42.463 33.4281 44.151 31.3801C45.406 29.8571 46.154 28.0151 46.315 26.0541C46.511 23.6471 47.297 21.2871 48.61 19.1121C51.4 22.2611 55.747 27.5281 55.021 30.9831ZM55.676 6.83205C56.127 6.81005 56.529 6.57905 56.779 6.19705C57.103 5.70305 57.067 5.01205 56.694 4.55605L56.693 4.55405C56.492 4.30605 56.235 4.14505 55.931 4.07805C55.308 3.93705 54.806 3.52305 54.55 2.94105C54.424 2.65205 54.217 2.43005 53.934 2.27905C53.413 2.00005 52.728 2.09605 52.305 2.50905C51.978 2.82705 51.828 3.26705 51.892 3.71405C52.06 4.87605 51.78 5.96705 51.105 6.78605L48.322 10.1611C49.052 10.5131 49.628 10.9721 50.055 11.5331L52.81 8.19105C53.485 7.37205 54.503 6.88905 55.676 6.83205Z" fill="#9D9D9D"/>
<path d="M14.7673 39.244C14.8092 39.2974 14.8367 39.3433 14.8473 39.3612L14.8522 39.3697L15.7571 40.8779H13.991H6.00598H3.99576L5.20843 39.2747C5.60157 38.7549 6.07369 38.3114 6.59697 37.9493C6.82304 37.792 7.06228 37.6456 7.31561 37.5171L7.32076 37.5145L7.32077 37.5145C7.3507 37.4995 7.37698 37.4878 7.39626 37.4795C7.41341 37.4721 7.42942 37.4655 7.43695 37.4624L7.43835 37.4619C7.43876 37.4617 7.43915 37.4615 7.43952 37.4614C7.43952 37.4614 7.43952 37.4614 7.43952 37.4614C7.64981 37.3608 7.86099 37.2765 8.07031 37.2044L8.07606 37.2024L8.07606 37.2025C8.1603 37.174 8.24832 37.1483 8.31146 37.1299C8.3241 37.1262 8.33574 37.1228 8.34615 37.1197L8.35341 37.1176L8.35341 37.1176C8.53413 37.0658 8.7172 37.0228 8.90041 36.9883C8.90732 36.987 8.91667 36.9851 8.928 36.9829C8.98285 36.9721 9.08386 36.9522 9.17676 36.9398C9.43179 36.9051 9.70865 36.8789 9.99998 36.8789C10.299 36.8789 10.5822 36.9065 10.8448 36.9439L10.8474 36.9442C10.9297 36.9562 11.0149 36.9728 11.0691 36.9833C11.0786 36.9852 11.087 36.9868 11.0944 36.9882C11.2958 37.0257 11.492 37.0735 11.6816 37.1285L11.689 37.1307L11.689 37.1307C11.6938 37.1321 11.7018 37.1344 11.7124 37.1375C11.759 37.1509 11.8542 37.1782 11.9305 37.2047C12.1572 37.2826 12.3837 37.3732 12.6075 37.4805C12.6118 37.4824 12.6167 37.4844 12.6218 37.4866C12.6376 37.4934 12.6601 37.5034 12.6862 37.5165L12.6897 37.5182L12.6897 37.5182C12.9424 37.6458 13.1757 37.7897 13.3918 37.9388L14.7673 39.244ZM14.7673 39.244C14.7514 39.2238 14.7372 39.2069 14.7264 39.1943C14.7166 39.1829 14.7074 39.1725 14.7031 39.1676L14.7031 39.1676C14.5544 38.9782 14.3961 38.8031 14.2344 38.6411M14.7673 39.244L14.2344 38.6411M14.2344 38.6411C14.165 38.5706 14.0953 38.5076 14.0479 38.4648L14.0445 38.4618C14.044 38.4613 14.0434 38.4608 14.0429 38.4602L14.2344 38.6411ZM14.8573 39.3785L14.857 39.378C14.8578 39.3793 14.858 39.3797 14.8576 39.3789L14.8573 39.3785Z" stroke="#20D994" stroke-width="2"/>
<path d="M36.825 38.7629L37.3929 37.9397C37.1767 37.7906 36.9434 37.6468 36.6907 37.5192L36.6907 37.5192L36.6872 37.5175C36.6611 37.5044 36.6387 37.4944 36.6228 37.4876C36.6177 37.4854 36.6128 37.4833 36.6085 37.4815C36.3847 37.3742 36.1582 37.2836 35.9316 37.2057C35.8552 37.1792 35.76 37.1518 35.7134 37.1384C35.7029 37.1354 35.6948 37.1331 35.6901 37.1317L35.6901 37.1316L35.6827 37.1295C35.493 37.0745 35.2969 37.0267 35.0955 36.9892C35.0881 36.9878 35.0796 36.9862 35.0702 36.9843C35.0159 36.9737 34.9308 36.9572 34.8485 36.9452L34.8458 36.9448C34.5833 36.9075 34.3 36.8799 34.001 36.8799C33.7023 36.8799 33.418 36.9075 33.1556 36.9449L33.1556 36.9449L33.1536 36.9452C33.0713 36.9572 32.9861 36.9737 32.9319 36.9843C32.9227 36.9861 32.9143 36.9877 32.907 36.9891C32.707 37.0262 32.5099 37.073 32.3139 37.1311L32.3139 37.1311L32.312 37.1317C32.3072 37.1331 32.2992 37.1354 32.2886 37.1384C32.2425 37.1517 32.1489 37.1786 32.0729 37.2049C31.8464 37.2816 31.6173 37.3727 31.3916 37.4824C31.3877 37.484 31.3836 37.4857 31.3792 37.4876C31.3634 37.4944 31.3409 37.5044 31.3148 37.5175C31.0594 37.6452 30.8257 37.7906 30.6132 37.937C30.5436 37.9842 30.467 38.0431 30.4316 38.0704C30.426 38.0747 30.4215 38.0782 30.4181 38.0808C30.2554 38.2016 30.1008 38.3301 29.9532 38.4657L29.9532 38.4657L29.9447 38.4737C29.9368 38.481 29.9258 38.4913 29.9126 38.5036C29.875 38.5385 29.8204 38.5893 29.7771 38.6317L29.7771 38.6316L29.7699 38.6388C29.6038 38.8049 29.4455 38.9816 29.2967 39.1702L29.2903 39.1776L29.2894 39.1786C29.2767 39.1934 29.2399 39.2361 29.2016 39.2912L27.9314 40.8789H30.012H37.992H39.7581L38.8533 39.3706L38.8483 39.3621C38.8378 39.3443 38.8103 39.2984 38.7683 39.245C38.7524 39.2248 38.7382 39.2078 38.7275 39.1953C38.7177 39.1839 38.7085 39.1735 38.7041 39.1686L38.7041 39.1686C38.5554 38.9791 38.3972 38.804 38.2354 38.6421C38.1661 38.5716 38.0963 38.5086 38.0489 38.4657L38.0456 38.4628C38.0451 38.4623 38.0446 38.4618 38.044 38.4613C37.8957 38.3263 37.7421 38.2 37.5859 38.0823L37.586 38.0823L37.5767 38.0754C37.5643 38.0663 37.5542 38.0586 37.5386 38.0467C37.5306 38.0406 37.5211 38.0334 37.5091 38.0243C37.4798 38.0021 37.4378 37.9705 37.3903 37.938L36.825 38.7629ZM36.825 38.7629C36.8593 38.7864 36.8927 38.8118 36.9261 38.8373C36.9445 38.8513 36.9628 38.8652 36.9813 38.8789L35.404 38.0899C35.4235 38.0957 35.4431 38.1014 35.4627 38.107C35.5104 38.1208 35.5582 38.1346 35.605 38.1509C35.806 38.2199 36.002 38.2989 36.192 38.3909C36.2 38.3949 36.208 38.3981 36.216 38.4014C36.224 38.4046 36.232 38.4079 36.24 38.4119C36.444 38.5149 36.638 38.6339 36.825 38.7629ZM38.8583 39.3794L38.8581 39.379C38.8588 39.3802 38.8591 39.3807 38.8586 39.3799L38.8583 39.3794Z" stroke="#20D994" stroke-width="2"/>
</svg>
