<svg width="22" height="16" viewBox="0 0 22 16" fill="none" xmlns="http://www.w3.org/2000/svg">
<rect width="22" height="15.7143" rx="2" fill="white"/>
<mask id="mask0_0_254" style="mask-type:alpha" maskUnits="userSpaceOnUse" x="0" y="0" width="22" height="16">
<rect width="22" height="15.7143" rx="2" fill="white"/>
</mask>
<g mask="url(#mask0_0_254)">
<path fill-rule="evenodd" clip-rule="evenodd" d="M22 0H0V1.04762H22V0ZM22 2.09524H0V3.14286H22V2.09524ZM0 4.19048H22V5.2381H0V4.19048ZM22 6.28571H0V7.33333H22V6.28571ZM0 8.38095H22V9.42857H0V8.38095ZM22 10.4762H0V11.5238H22V10.4762ZM0 12.5714H22V13.619H0V12.5714ZM22 14.6667H0V15.7143H22V14.6667Z" fill="#D02F44"/>
<rect width="9.42857" height="7.33333" fill="#46467F"/>
<g filter="url(#filter0_d_0_254)">
<path fill-rule="evenodd" clip-rule="evenodd" d="M1.57142 2.09523C1.86071 2.09523 2.09523 1.86071 2.09523 1.57142C2.09523 1.28212 1.86071 1.04761 1.57142 1.04761C1.28212 1.04761 1.04761 1.28212 1.04761 1.57142C1.04761 1.86071 1.28212 2.09523 1.57142 2.09523ZM3.66666 2.09523C3.95595 2.09523 4.19046 1.86071 4.19046 1.57142C4.19046 1.28212 3.95595 1.04761 3.66666 1.04761C3.37736 1.04761 3.14285 1.28212 3.14285 1.57142C3.14285 1.86071 3.37736 2.09523 3.66666 2.09523ZM6.2857 1.57142C6.2857 1.86071 6.05119 2.09523 5.76189 2.09523C5.4726 2.09523 5.23808 1.86071 5.23808 1.57142C5.23808 1.28212 5.4726 1.04761 5.76189 1.04761C6.05119 1.04761 6.2857 1.28212 6.2857 1.57142ZM7.85713 2.09523C8.14642 2.09523 8.38094 1.86071 8.38094 1.57142C8.38094 1.28212 8.14642 1.04761 7.85713 1.04761C7.56784 1.04761 7.33332 1.28212 7.33332 1.57142C7.33332 1.86071 7.56784 2.09523 7.85713 2.09523ZM3.14285 2.61904C3.14285 2.90833 2.90833 3.14285 2.61904 3.14285C2.32974 3.14285 2.09523 2.90833 2.09523 2.61904C2.09523 2.32974 2.32974 2.09523 2.61904 2.09523C2.90833 2.09523 3.14285 2.32974 3.14285 2.61904ZM4.71427 3.14285C5.00357 3.14285 5.23808 2.90833 5.23808 2.61904C5.23808 2.32974 5.00357 2.09523 4.71427 2.09523C4.42498 2.09523 4.19046 2.32974 4.19046 2.61904C4.19046 2.90833 4.42498 3.14285 4.71427 3.14285ZM7.33332 2.61904C7.33332 2.90833 7.0988 3.14285 6.80951 3.14285C6.52022 3.14285 6.2857 2.90833 6.2857 2.61904C6.2857 2.32974 6.52022 2.09523 6.80951 2.09523C7.0988 2.09523 7.33332 2.32974 7.33332 2.61904ZM7.85713 4.19046C8.14642 4.19046 8.38094 3.95595 8.38094 3.66666C8.38094 3.37736 8.14642 3.14285 7.85713 3.14285C7.56784 3.14285 7.33332 3.37736 7.33332 3.66666C7.33332 3.95595 7.56784 4.19046 7.85713 4.19046ZM6.2857 3.66666C6.2857 3.95595 6.05119 4.19046 5.76189 4.19046C5.4726 4.19046 5.23808 3.95595 5.23808 3.66666C5.23808 3.37736 5.4726 3.14285 5.76189 3.14285C6.05119 3.14285 6.2857 3.37736 6.2857 3.66666ZM3.66666 4.19046C3.95595 4.19046 4.19046 3.95595 4.19046 3.66666C4.19046 3.37736 3.95595 3.14285 3.66666 3.14285C3.37736 3.14285 3.14285 3.37736 3.14285 3.66666C3.14285 3.95595 3.37736 4.19046 3.66666 4.19046ZM2.09523 3.66666C2.09523 3.95595 1.86071 4.19046 1.57142 4.19046C1.28212 4.19046 1.04761 3.95595 1.04761 3.66666C1.04761 3.37736 1.28212 3.14285 1.57142 3.14285C1.86071 3.14285 2.09523 3.37736 2.09523 3.66666ZM2.61904 5.23808C2.90833 5.23808 3.14285 5.00357 3.14285 4.71427C3.14285 4.42498 2.90833 4.19046 2.61904 4.19046C2.32974 4.19046 2.09523 4.42498 2.09523 4.71427C2.09523 5.00357 2.32974 5.23808 2.61904 5.23808ZM5.23808 4.71427C5.23808 5.00357 5.00357 5.23808 4.71427 5.23808C4.42498 5.23808 4.19046 5.00357 4.19046 4.71427C4.19046 4.42498 4.42498 4.19046 4.71427 4.19046C5.00357 4.19046 5.23808 4.42498 5.23808 4.71427ZM6.80951 5.23808C7.0988 5.23808 7.33332 5.00357 7.33332 4.71427C7.33332 4.42498 7.0988 4.19046 6.80951 4.19046C6.52022 4.19046 6.2857 4.42498 6.2857 4.71427C6.2857 5.00357 6.52022 5.23808 6.80951 5.23808ZM8.38094 5.76189C8.38094 6.05119 8.14642 6.2857 7.85713 6.2857C7.56784 6.2857 7.33332 6.05119 7.33332 5.76189C7.33332 5.4726 7.56784 5.23808 7.85713 5.23808C8.14642 5.23808 8.38094 5.4726 8.38094 5.76189ZM5.76189 6.2857C6.05119 6.2857 6.2857 6.05119 6.2857 5.76189C6.2857 5.4726 6.05119 5.23808 5.76189 5.23808C5.4726 5.23808 5.23808 5.4726 5.23808 5.76189C5.23808 6.05119 5.4726 6.2857 5.76189 6.2857ZM4.19046 5.76189C4.19046 6.05119 3.95595 6.2857 3.66666 6.2857C3.37736 6.2857 3.14285 6.05119 3.14285 5.76189C3.14285 5.4726 3.37736 5.23808 3.66666 5.23808C3.95595 5.23808 4.19046 5.4726 4.19046 5.76189ZM1.57142 6.2857C1.86071 6.2857 2.09523 6.05119 2.09523 5.76189C2.09523 5.4726 1.86071 5.23808 1.57142 5.23808C1.28212 5.23808 1.04761 5.4726 1.04761 5.76189C1.04761 6.05119 1.28212 6.2857 1.57142 6.2857Z" fill="url(#paint0_linear_0_254)"/>
</g>
</g>
<defs>
<filter id="filter0_d_0_254" x="1.04761" y="1.04761" width="7.33331" height="6.2381" filterUnits="userSpaceOnUse" color-interpolation-filters="sRGB">
<feFlood flood-opacity="0" result="BackgroundImageFix"/>
<feColorMatrix in="SourceAlpha" type="matrix" values="0 0 0 0 0 0 0 0 0 0 0 0 0 0 0 0 0 0 127 0" result="hardAlpha"/>
<feOffset dy="1"/>
<feColorMatrix type="matrix" values="0 0 0 0 0 0 0 0 0 0 0 0 0 0 0 0 0 0 0.06 0"/>
<feBlend mode="normal" in2="BackgroundImageFix" result="effect1_dropShadow_0_254"/>
<feBlend mode="normal" in="SourceGraphic" in2="effect1_dropShadow_0_254" result="shape"/>
</filter>
<linearGradient id="paint0_linear_0_254" x1="1.04761" y1="1.04761" x2="1.04761" y2="6.2857" gradientUnits="userSpaceOnUse">
<stop stop-color="white"/>
<stop offset="1" stop-color="#F0F0F0"/>
</linearGradient>
</defs>
</svg>
